<?xml version="1.0" encoding="utf-8"?>
<!-- Generator: Adobe Illustrator 18.1.0, SVG Export Plug-In . SVG Version: 6.00 Build 0)  -->
<svg version="1.1" id="Layer_1" xmlns="http://www.w3.org/2000/svg" xmlns:xlink="http://www.w3.org/1999/xlink" x="0px" y="0px"
	 viewBox="0 0 1224 792" enable-background="new 0 0 1224 792" xml:space="preserve">
<path fill="#AC833D" d="M608,71.6V19.5C506,48.1,414.2,145.3,393.7,197C373,249,389,336,389,336l-20.5,7L390,448l18.5,2
	C415,569.5,437,596.5,437,596.5l38,0.5c-3-2.5-4.6-4-4.6-4c-13.7-9.7-13.7-53.9-13.4-66.4c-5.3-3.4-8.9-6.9-10.6-10.3
	c-16-32.7-21.3-170.7-21.3-170.7L402.3,317l8.7-25.3c-14-96,30.7-143.3,30.7-143.3S498.9,75.1,608,71.6z M411.1,399.3l3.7,35.8
	l-9.3,1l-3.7-35.8L411.1,399.3z"/>
<polygon fill="#AC833D" points="411.1,399.3 414.8,435.1 405.6,436 401.8,400.2 "/>
<path fill="#815625" d="M565.3,365.3c0,13.9-5.9,26.4-15.3,35.2c-3.9,3.6-8.3,6.6-13.2,8.7c-5.2,2.3-11,3.7-17,4
	c-0.8,0-1.6,0.1-2.4,0.1c-3.7,0-7.4-0.4-10.8-1.2c-4.6-1.1-9-2.8-13-5.1c-5.1-2.9-9.6-6.7-13.2-11.2c-6.8-8.3-10.9-18.9-10.9-30.5
	c0-11.6,4.1-22.2,10.9-30.5c3.7-4.5,8.2-8.3,13.2-11.2c4-2.3,8.4-4,13-5.1c3.5-0.8,7.1-1.2,10.8-1.2c0.8,0,1.6,0,2.4,0.1
	c6,0.3,11.8,1.7,17,4c4.9,2.2,9.4,5.1,13.2,8.7C559.4,338.9,565.3,351.4,565.3,365.3z"/>
<path fill="#815625" d="M520.7,549c14.8,3.1,31,5.6,48.3,7.3v0.3c-15.1-1.5-31.1-3.8-48-7.2C521,549.3,520.9,549.2,520.7,549z"/>
<line fill="none" x1="608" y1="558.6" x2="608" y2="558.6"/>
<polygon fill="#815625" points="651.8,505.8 608,470.1 608,347.5 608.3,334.7 608.7,461.9 "/>
<path fill="#996E31" d="M838.3,450.3l-18.7-1.3c0,0,12.7,109.3-20,155.3l-53-1.2c6.6-5.5,11.7-10.8,14-15.5
	c9.2-18.2,13.7-50.4,15.1-63c1.9-1,3.8-2.1,5.7-3.1c0,0,25-107,20.5-177l24-22l-8-19.5c0,0,21.7-185.3-135.7-223.3
	c-27-6.5-51.8-8.8-74.3-8.1V19.5c0.5-0.2,1.1-0.3,1.7-0.5c0,0,208,75.3,226,186c0,0,20,64,2,126.7l20,10L838.3,450.3z"/>
<path fill="none" stroke="#000000" stroke-width="2" stroke-miterlimit="10" d="M608,555.3c-10.5-0.4-21.7-1.1-33.5-2.4"/>
<path fill="#E9C340" d="M608,560v101.8c-9.6-0.2-19.8-1.5-30.3-4.2c-41-10.5-88-48.3-102.7-60.7c-3-2.5-4.6-4-4.6-4
	c-13.7-9.7-13.7-53.9-13.4-66.4c12.8,8.3,64.1,22.7,64.1,22.7c16.9,3.5,32.9,5.8,48,7.2v3.4H608z"/>
<path fill="#A47832" d="M520.7,549c14.8,3.1,31,5.6,48.3,7.3v0.3c-15.1-1.5-31.1-3.8-48-7.2C521,549.3,520.9,549.2,520.7,549z"/>
<line fill="none" x1="608" y1="558.6" x2="608" y2="558.6"/>
<path fill="#DDB73D" d="M781.5,522.5c-1.5,12.7-11.6,47-20.8,65.2c-2.3,4.6-7.4,9.9-14,15.5C720.4,625,670,650.3,670,650.3
	s-26.6,12.4-62,11.5V560h41.5v-2.5c3.3-0.2,6.7-0.5,10-0.8C700.3,552.9,745.8,539,781.5,522.5z"/>
<rect x="392.1" y="345.5" transform="matrix(0.9813 -0.1925 0.1925 0.9813 -62.5621 83.1937)" fill="#7A4D2C" width="9.3" height="36"/>
<rect x="377.5" y="349.8" transform="matrix(0.9813 -0.1925 0.1925 0.9813 -63.671 80.4504)" fill="#7A4D2C" width="9.3" height="36"/>
<rect x="391.5" y="402.1" transform="matrix(0.9813 -0.1925 0.1925 0.9813 -73.4729 84.1397)" fill="#7A4D2C" width="9.3" height="36"/>
<polygon fill="#7A4D2C" points="418.6,433.3 409.5,435 402.6,399.7 411.7,397.9 "/>
<rect x="824.8" y="346.5" transform="matrix(-0.9838 -0.1792 0.1792 -0.9838 1580.2344 871.7183)" fill="#70411E" width="9.3" height="36"/>
<rect x="839.6" y="350.6" transform="matrix(-0.9838 -0.1792 0.1792 -0.9838 1608.71 882.561)" fill="#70411E" width="9.3" height="36"/>
<rect x="827.2" y="403.2" transform="matrix(-0.9838 -0.1792 0.1792 -0.9838 1574.7417 984.5775)" fill="#70411E" width="9.3" height="36"/>
<rect x="812.7" y="399.7" transform="matrix(-0.9838 -0.1792 0.1792 -0.9838 1546.701 975.1544)" fill="#70411E" width="9.3" height="36"/>
<path fill="#966C2B" d="M565.3,365.3c0,13.9-5.9,26.4-15.3,35.2c-3.9,3.6-8.3,6.6-13.2,8.7c-5.2,2.3-11,3.7-17,4
	c-0.8,0-1.6,0.1-2.4,0.1c-3.7,0-7.4-0.4-10.8-1.2c-4.6-1.1-9-2.8-13-5.1c-5.1-2.9-9.6-6.7-13.2-11.2c-6.8-8.3-10.9-18.9-10.9-30.5
	c0-11.6,4.1-22.2,10.9-30.5c3.7-4.5,8.2-8.3,13.2-11.2c4-2.3,8.4-4,13-5.1c3.5-0.8,7.1-1.2,10.8-1.2c0.8,0,1.6,0,2.4,0.1
	c6,0.3,11.8,1.7,17,4c4.9,2.2,9.4,5.1,13.2,8.7C559.4,338.9,565.3,351.4,565.3,365.3z"/>
<path fill="#BC802B" stroke="#BC802B" stroke-miterlimit="10" d="M802,344.5c4.5,70-20.5,177-20.5,177c-1.9,1.1-3.8,2.1-5.7,3.1
	c-34.7,18.5-75.5,28.3-116.3,32.1c-3.3,0.3-6.7,0.6-10,0.8v-0.5c3.5-0.3,6.9-0.7,10-1c19.4-2.2,30.5-5.1,30.5-5.1
	c9.1-10.6,17.3-20.9,24.6-30.9C798,406.8,776,332.5,776,332.5c-56-101.5-166.8-9.7-166.8-9.7c-0.4-0.3-0.8-0.6-1.2-0.8V71.6
	c22.6-0.7,47.4,1.5,74.3,8.1C839.7,117.7,818,303,818,303l8,19.5L802,344.5z"/>
<polygon fill="#966C2B" points="651.8,505.8 608,470.1 608,347.5 608.3,334.7 608.7,461.9 "/>
<g>
	<path fill="#ECCF4D" d="M517.3,411.8c-3.6,0-7.1-0.4-10.5-1.2c-4.4-1-8.6-2.7-12.6-4.9c-4.9-2.8-9.2-6.5-12.8-10.8
		c-6.8-8.3-10.6-18.8-10.6-29.5s3.8-21.2,10.6-29.5c3.6-4.4,7.9-8,12.8-10.8c4-2.3,8.2-3.9,12.6-4.9c3.4-0.8,6.9-1.2,10.5-1.2
		c0.8,0,1.6,0,2.3,0.1c5.7,0.3,11.3,1.6,16.5,3.9c4.7,2.1,9,4.9,12.8,8.5c9.4,8.8,14.9,21.2,14.9,34.1s-5.4,25.3-14.9,34.1
		c-3.8,3.5-8.1,6.4-12.8,8.5c-5.2,2.3-10.7,3.6-16.5,3.9C518.9,411.8,518.1,411.8,517.3,411.8z"/>
	<path fill="#BD893C" d="M517.3,320.3c0.8,0,1.5,0,2.3,0.1c5.5,0.3,10.9,1.5,15.9,3.8c4.6,2,8.8,4.8,12.4,8.2
		c9.1,8.5,14.4,20.5,14.4,33c0,12.5-5.2,24.5-14.4,33c-3.7,3.4-7.8,6.2-12.4,8.2c-5,2.2-10.4,3.5-15.9,3.8c-0.7,0-1.5,0.1-2.3,0.1
		c-3.5,0-6.9-0.4-10.2-1.2c-4.3-1-8.4-2.6-12.2-4.8c-4.8-2.7-8.9-6.3-12.4-10.5c-6.6-8-10.2-18.2-10.2-28.6
		c0-10.4,3.6-20.5,10.2-28.6c3.5-4.2,7.7-7.8,12.4-10.5c3.8-2.2,7.9-3.8,12.2-4.8C510.5,320.7,513.9,320.3,517.3,320.3 M517.3,317.3
		c-3.7,0-7.4,0.4-10.8,1.2c-4.6,1.1-9,2.8-13,5.1c-5.1,2.9-9.6,6.7-13.2,11.2c-6.8,8.3-10.9,18.9-10.9,30.5
		c0,11.6,4.1,22.2,10.9,30.5c3.7,4.5,8.2,8.3,13.2,11.2c4,2.3,8.4,4,13,5.1c3.5,0.8,7.1,1.2,10.8,1.2c0.8,0,1.6,0,2.4-0.1
		c6-0.3,11.8-1.7,17-4c4.9-2.2,9.4-5.1,13.2-8.7c9.4-8.8,15.3-21.3,15.3-35.2c0-13.9-5.9-26.4-15.3-35.2c-3.9-3.6-8.3-6.6-13.2-8.7
		c-5.2-2.3-11-3.7-17-4C519,317.3,518.1,317.3,517.3,317.3L517.3,317.3z"/>
</g>
<path fill="#774925" d="M520.7,549c14.8,3.1,31,5.6,48.3,7.3v0.3c-15.1-1.5-31.1-3.8-48-7.2C521,549.3,520.9,549.2,520.7,549z"/>
<line fill="none" x1="608" y1="558.6" x2="608" y2="558.6"/>
<path fill="#CEA234" d="M714.6,520.1c-7.3,10-14.8,22.3-23.9,32.9c0,0-11.3,2-30.8,4.2c-3.1,0.4-7,0.7-10.5,1V527H608v-56.9
	l43.8,35.8l-43.2-44l-0.3-127.2l-0.3,12.8V322c0.4,0.3,0.8,0.6,1.2,0.8c0,0,110.8-91.8,166.8,9.7C776,332.5,798,406.8,714.6,520.1z"
	/>
<polygon fill="#774925" points="651.8,505.8 608,470.1 608,347.5 608.3,334.7 608.7,461.9 "/>
<g>
	<g>
		<path fill="#D8BC47" d="M699.3,411.5c-25.6,0-46.5-20.9-46.5-46.5s20.9-46.5,46.5-46.5s46.5,20.9,46.5,46.5S725,411.5,699.3,411.5
			z"/>
		<path fill="#B27E37" d="M699.3,320c24.8,0,45,20.2,45,45s-20.2,45-45,45s-45-20.2-45-45S674.5,320,699.3,320 M699.3,317
			c-26.5,0-48,21.5-48,48s21.5,48,48,48c26.5,0,48-21.5,48-48S725.8,317,699.3,317L699.3,317z"/>
	</g>
	<line fill="none" stroke="#B27E37" stroke-width="3" stroke-miterlimit="10" x1="736.4" y1="334.5" x2="736.4" y2="395.5"/>
	<line fill="none" stroke="#B27E37" stroke-width="3" stroke-miterlimit="10" x1="723.2" y1="323.3" x2="723.2" y2="406.7"/>
	<line fill="none" stroke="#B27E37" stroke-width="3" stroke-miterlimit="10" x1="710.2" y1="318.2" x2="710.2" y2="411.8"/>
	<line fill="none" stroke="#B27E37" stroke-width="3" stroke-miterlimit="10" x1="696.9" y1="317.1" x2="696.9" y2="412.9"/>
	<line fill="none" stroke="#B27E37" stroke-width="3" stroke-miterlimit="10" x1="679.9" y1="321.1" x2="679.9" y2="408.9"/>
	<line fill="none" stroke="#B27E37" stroke-width="3" stroke-miterlimit="10" x1="666.7" y1="329.8" x2="666.7" y2="400.2"/>
	<circle cx="698.6" cy="367" r="13.5"/>
</g>
<g>
	<path fill="none" stroke="#BD893C" stroke-width="3" stroke-miterlimit="10" d="M565.3,365.3c0,13.9-5.9,26.4-15.3,35.2
		c-3.9,3.6-8.3,6.6-13.2,8.7c-5.2,2.3-11,3.7-17,4c-0.8,0-1.6,0.1-2.4,0.1c-3.7,0-7.4-0.4-10.8-1.2c-4.6-1.1-9-2.8-13-5.1
		c-5.1-2.9-9.6-6.7-13.2-11.2c-6.8-8.3-10.9-18.9-10.9-30.5c0-11.6,4.1-22.2,10.9-30.5c3.7-4.5,8.2-8.3,13.2-11.2
		c4-2.3,8.4-4,13-5.1c3.5-0.8,7.1-1.2,10.8-1.2c0.8,0,1.6,0,2.4,0.1c6,0.3,11.8,1.7,17,4c4.9,2.2,9.4,5.1,13.2,8.7
		C559.4,338.9,565.3,351.4,565.3,365.3z"/>
	<line fill="none" stroke="#BD893C" stroke-width="3" stroke-miterlimit="10" x1="480.2" y1="395.8" x2="480.2" y2="334.9"/>
	<line fill="none" stroke="#BD893C" stroke-width="3" stroke-miterlimit="10" x1="493.5" y1="407" x2="493.5" y2="323.7"/>
	<line fill="none" stroke="#BD893C" stroke-width="3" stroke-miterlimit="10" x1="506.5" y1="412.1" x2="506.5" y2="318.6"/>
	<line fill="none" stroke="#BD893C" stroke-width="3" stroke-miterlimit="10" x1="519.8" y1="413.3" x2="519.8" y2="317.4"/>
	<line fill="none" stroke="#BD893C" stroke-width="3" stroke-miterlimit="10" x1="536.8" y1="409.2" x2="536.8" y2="321.4"/>
	<line fill="none" stroke="#BD893C" stroke-width="3" stroke-miterlimit="10" x1="550" y1="400.5" x2="550" y2="330.2"/>
	<circle cx="518" cy="367.3" r="13.5"/>
</g>
<polygon fill="#957233" points="651.8,505.8 608,470.1 608,347.5 608.3,334.7 608.7,461.9 "/>
<polygon fill="#321715" points="608,558.6 608,560 649.5,560 649.5,557.5 649.5,557.1 649.5,527 608,527 608,555.3 608,558.6 "/>
<line fill="none" x1="608" y1="558.6" x2="608" y2="558.6"/>
<path fill="#C38E33" stroke="#C38E33" stroke-miterlimit="10" d="M435.8,338.8c5,79.1,42.6,148,66.1,183.9
	c9.8,15,17.2,24.3,18.7,26.2c-28.3-6-51-14-63.8-22.3c-5.3-3.4-8.9-6.9-10.6-10.3c-16-32.7-21.3-170.7-21.3-170.7L402.3,317
	l8.7-25.3c-14-96,30.7-143.3,30.7-143.3S498.9,75.1,608,71.6V322C482.2,230.5,435.8,338.8,435.8,338.8z"/>
<path fill="#DBB33A" d="M608,347.5V322c-125.8-91.5-172.2,16.8-172.2,16.8c5,79.1,42.6,148,66.1,183.9c9.8,15,18,25.3,19.5,27.2
	c14.8,3.1,30.2,5.5,47.5,7.2V527h39v-56.9l-1.3-1.1l-44,34.7l42.4-41L608,347.5z M550,400.5c-3.9,3.6-8.3,6.6-13.2,8.7
	c-5.2,2.3-11,3.7-17,4c-0.8,0-1.6,0.1-2.4,0.1c-3.7,0-7.4-0.4-10.8-1.2c-4.6-1.1-9-2.8-13-5.1c-5.1-2.9-9.6-6.7-13.2-11.2
	c-6.8-8.3-10.9-18.9-10.9-30.5c0-11.6,4.1-22.2,10.9-30.5c3.7-4.5,8.2-8.3,13.2-11.2c4-2.3,8.4-4,13-5.1c3.5-0.8,7.1-1.2,10.8-1.2
	c0.8,0,1.6,0,2.4,0.1c6,0.3,11.8,1.7,17,4c4.9,2.2,9.4,5.1,13.2,8.7c9.4,8.8,15.3,21.3,15.3,35.2C565.3,379.2,559.4,391.7,550,400.5
	z"/>
<rect x="569" y="527" fill="#421E19" width="39" height="33"/>
<polygon fill="#957233" points="608,347.5 608,470.1 606.7,469 562.7,503.7 605,462.7 "/>
</svg>
