<?xml version="1.0" encoding="utf-8"?>
<!-- Generator: Adobe Illustrator 18.1.0, SVG Export Plug-In . SVG Version: 6.00 Build 0)  -->
<svg version="1.1" id="Layer_1" xmlns="http://www.w3.org/2000/svg" xmlns:xlink="http://www.w3.org/1999/xlink" x="0px" y="0px"
	 viewBox="0 0 3593.3 2939.4" enable-background="new 0 0 3593.3 2939.4" xml:space="preserve">
<ellipse fill="#FFFFFF" stroke="#FFFFFF" stroke-miterlimit="10" cx="2087.6" cy="1562.7" rx="395.9" ry="452.9"/>
<path fill="#6A3627" stroke="#6A3627" stroke-miterlimit="10" d="M2490.2,2239.8c0,0-36.9-17.9-41.6-55.7c0,0,66.2,56.7,121.9,36.8
	c0,0-84.1-0.9-105.9-102.1c-21.8-101.1,96.4-204.1,96.4-204.1s201.3-171.1,116.2-443.3c0,0-53.8-198.4-50.1-288.2
	c3.8-89.8,1.9-382.7-26.5-441.4c0,0-8.5-69-43.5-144.6c0,0-11.3-93.5-121.9-200.3c0,0-83.2-132.3-200.3-160.6
	c0,0-65.2-76.6-150.3-75.6c0,0-69.7-21.3-146.2-24.4v139.2c12.1,14.3,22.1,36.9,20.1,72.3c0,0,17.7-60.1,50.8-69.9
	c-1.5,1.3-49.9,45.2-54.5,164c0-2.9-0.2-63.7-16.3-119.6V1250c14.6-2.6,39.8-3.8,59.7,11.5c29.9,23,80.9,89.6,80.9,89.6
	s37.9,42.9,3.1,75.3c0,0,0,8.3-99,47.5c-10.9,5.9-26.9,14.1-37.7,17.3c1.2,22.1,2.1,40.3,2.4,51.2c97.1,13.7,177.2,74.6,177.2,74.6
	s95.2,41,73.7,124.1c0,0-3.7-65.3-44.8-85.8c0,0-1.9,28-42.9,29.9c-41,1.9-66.2-7.5-66.2-7.5s-66.1-17.5-106.3-19.4v126.7
	c0.4-0.6,0.6-0.9,0.6-0.9s-0.3,1.5-0.6,4v38.4c1.3,9.5,3.9,19.7,8.4,29.4c15.5,33.5,80.9,146.6,85,153.6
	c-15.8-24.1-33.4-45.1-33.4-45.1c-37.1-40.6-53.5-74.8-60-91.5v44.1c11,37.6,40.8,64.8,86.5,118.3c64.7,75.9,74.6,143.7,74.6,143.7
	c-37.9-108.2-61-83.3-143.1-195.3c-7.1-9.6-13-19-18-28.2v587.1c17.6,18.2,35,40.3,49.8,66.8c42,75.3,7.4,147.3-49.8,198.5v33.4
	c52.4-11.5,135.8-41,227.5-117.6c152.3-127.1,112.4-262.5,111.5-265.5c2.5,2.4,114.6,107.6,309.9,95.4c0,0-165.4-69-191.8-172
	c0,0,66.2,41.6,150.3,48.2c84.1,6.6,110.6,82.2,110.6,82.2s0-89.8-95.5-134.2c0,0,106.8,16,147.4,115.3
	C2708.5,2493.1,2711.4,2334.3,2490.2,2239.8z M2064.7,2772.2c7-9.1,88.1-120.3-17.9-296.7c1.8,2,50.6,56,65.7,128
	c3.8-18.5,8.4-51.5-0.4-78.9c0,0,19.1,30.8,3.4,96.8C2121.3,2668.4,2111.1,2721.5,2064.7,2772.2z M2602.8,1430.4
	c0,0-32.5-39.9-89.9-86.3c22.6,28.3,54.8,78.1,61.9,139c0,0-36.5-113.8-134.3-190.8c-25-15.7-52.4-30.7-82.1-43.8
	C2363.8,1250.1,2532.1,1302.7,2602.8,1430.4z M2535.4,857c1.2,1.3,2.4,2.6,3.6,4c1,1.2,2.1,2.3,3.1,3.5c1,1.2,2.1,2.4,3.1,3.7
	c0.8,1,1.7,2.1,2.5,3.2c1.6,2,3.2,4.1,4.7,6.2c0.8,1.1,1.6,2.2,2.4,3.3c0.7,1,1.5,2.1,2.2,3.2c0.8,1.2,1.6,2.3,2.4,3.5
	c3.8,5.6,7.6,11.6,11.4,17.9c1,1.8,2.1,3.7,3.2,5.6c0,0.1,0.1,0.1,0.1,0.2c1.5,2.6,3,5.3,4.5,8c1.6,2.9,3.2,5.9,4.8,9
	c1.6,3.1,3.2,6.2,4.7,9.5c-0.4-0.6-1-1.6-1.9-3c-0.2-0.3-0.4-0.7-0.7-1.1c-1.6-2.6-4-6.2-6.9-10.4c-0.3-0.4-0.5-0.8-0.8-1.2
	c-7-10-17.3-23.5-30.3-37.3c-2.9-3.1-6-6.2-9.2-9.4c-0.9-0.9-1.8-1.8-2.7-2.6c-0.9-0.9-1.8-1.8-2.8-2.6c-1.5-1.3-2.9-2.7-4.5-4
	c-1.9-1.7-3.8-3.4-5.8-5c-0.5-0.4-1.1-0.9-1.7-1.4c-1.6-1.3-3.2-2.6-4.9-3.9c-1.5-1.1-2.9-2.2-4.4-3.3c-1.8-1.3-3.6-2.6-5.4-3.9
	c-5.9-4.1-12.1-7.9-18.4-11.3c-1.2-0.6-2.4-1.3-3.6-1.9c-1.2-0.6-2.5-1.2-3.7-1.8c-1.2-0.6-2.5-1.2-3.7-1.7
	c-1.9-0.8-3.8-1.6-5.7-2.4c-1.7-0.7-3.4-1.3-5.1-1.9c-0.9-0.3-1.6-0.6-2.5-0.8c-0.8-0.3-1.7-0.6-2.5-0.8c-2.2-0.7-4.5-1.3-6.7-1.9
	c-1.5-0.4-2.9-0.7-4.4-1c-1.4-0.3-2.8-0.6-4.1-0.8c-1.3-0.3-2.7-0.5-4-0.7c-1.4-0.2-2.7-0.4-4.1-0.5c-2.7-0.3-5.5-0.5-8.2-0.6
	c-1.6-0.1-3.2-0.1-4.9-0.1c-1,0-2.1,0-3.1,0c-2.1,0.1-4.2,0.2-6.3,0.3c-2.1,0.2-4.2,0.4-6.3,0.7c-2.1,0.3-4.3,0.6-6.4,1
	c-1.9,0.4-3.8,0.8-5.7,1.2c-0.8,0.2-1.6,0.4-2.4,0.6c-1.6,0.4-3.2,0.9-4.9,1.4c-5.5,1.7-11,3.8-16.6,6.4c0,0,1.8-1.5,5-3.6
	c0.8-0.5,1.7-1.1,2.7-1.8c1-0.6,2.1-1.3,3.2-1.9s2.4-1.4,3.8-2.1s2.8-1.5,4.3-2.2c2.2-1.1,4.7-2.2,7.2-3.2c3.4-1.4,7.2-2.7,11.2-3.9
	c9.9-2.9,21.4-4.8,34.1-4.4c0.8,0,1.6,0.1,2.5,0.1c0.4,0,0.7,0,1.1,0.1c1.5,0.1,3,0.2,4.6,0.4c1.5,0.1,3.1,0.4,4.7,0.6
	c1.5,0.2,3,0.5,4.6,0.8c1.2,0.3,2.4,0.5,3.6,0.8c0.1,0,0.2,0,0.3,0.1c1.1,0.3,2.2,0.6,3.4,0.9c1.3,0.3,2.5,0.7,3.7,1.1
	c3.9,1.2,7.9,2.8,11.9,4.6c1.1,0.5,2.2,1,3.3,1.5c1.3,0.6,2.6,1.3,3.9,2c0.2,0.1,0.4,0.2,0.7,0.4c1.1,0.6,2.2,1.2,3.2,1.8
	c1.2,0.7,2.5,1.5,3.7,2.2c0.1,0,0.1,0.1,0.2,0.1c1.5,0.9,2.9,1.8,4.4,2.8c0.1,0,0.1,0.1,0.2,0.1c0.7,0.5,1.5,1,2.2,1.6
	c0.7,0.5,1.5,1,2.2,1.6c0.4,0.3,0.8,0.6,1.2,0.9c0.4,0.3,0.9,0.6,1.3,1c1.2,0.9,2.5,1.9,3.7,2.9c0.4,0.3,0.7,0.6,1.1,0.9
	c0.8,0.6,1.6,1.3,2.4,2c2.2,1.9,4.4,3.9,6.6,6C2528.6,849.9,2532,853.3,2535.4,857z M2336.8,841.7c-53.5,36.1-72.1,34.8-72.1,34.8
	c35.4-20.5,74.6-64,74.6-64c82.7-87.1,187.8,11.8,187.8,11.8C2415.1,756.5,2390.3,805.6,2336.8,841.7z M2282,662.6
	c-0.9,0.1-1.8,0.2-2.8,0.4c-0.4,0-0.9,0.1-1.4,0.2c-0.7,0.1-1.4,0.2-2.1,0.3c-1.6,0.3-3.2,0.6-4.8,1c-0.9,0.2-1.7,0.4-2.5,0.6
	c-1.1,0.2-2.1,0.5-3.2,0.8c-1.3,0.3-2.5,0.7-3.7,1.1c-1.9,0.6-3.9,1.2-5.8,1.9c-1.5,0.5-2.9,1-4.4,1.6c-0.5,0.2-0.9,0.4-1.4,0.6
	c-1.4,0.6-2.8,1.2-4.2,1.8c-0.3,0.1-0.7,0.3-1,0.4c-1.6,0.7-3.1,1.4-4.6,2.2c-0.9,0.4-1.9,0.9-2.8,1.4c-1,0.5-2.1,1.1-3.2,1.6
	c-1.4,0.7-2.7,1.4-4.1,2.2c-1.9,1-3.8,2.1-5.7,3.2c-0.5,0.3-1,0.6-1.6,0.9c-0.8,0.5-1.6,1-2.4,1.5c-0.6,0.4-1.2,0.7-1.8,1.2
	c-1.9,1.2-3.8,2.5-5.8,3.8c-1,0.6-1.9,1.3-2.9,1.9c-1,0.6-1.9,1.3-2.9,2c-1.9,1.3-3.8,2.7-5.7,4.1c-0.2,0.1-0.3,0.2-0.5,0.3
	c-1.8,1.4-3.7,2.8-5.5,4.2c-1.9,1.4-3.7,2.9-5.6,4.4c-1.9,1.5-3.7,3-5.5,4.6c-1.5,1.3-3.1,2.6-4.6,4c-0.9,0.7-1.8,1.5-2.7,2.4
	c-4.8,4.2-9.6,8.5-14.3,13.1c-1.8,1.7-3.5,3.4-5.3,5.1c-1.8,1.7-3.5,3.4-5.3,5.2c-13.1,13.1-25.6,26.9-37.4,40.8
	c-0.8,0.9-1.6,1.9-2.4,2.8c-3.1,3.7-6.2,7.4-9.1,11c-0.8,0.9-1.5,1.9-2.2,2.8c-4.5,5.5-8.8,11-12.9,16.3c-1.4,1.8-2.8,3.6-4.1,5.4
	c-2.7,3.5-5.3,7-7.9,10.5c-1.3,1.7-2.6,3.4-3.8,5.1c-0.6,0.8-1.2,1.7-1.8,2.5c-0.6,0.9-1.2,1.7-1.8,2.5
	c-7.8,10.7-14.8,20.7-20.7,29.6c-0.9,1.3-1.7,2.5-2.6,3.8c-0.6,0.9-1.2,1.8-1.8,2.6c-0.4,0.6-0.7,1.1-1.1,1.7
	c-5.3,8-9.6,14.7-12.6,19.4c-0.4,0.7-0.8,1.3-1.2,1.8c-0.7,1-1.2,1.9-1.7,2.7c-0.3,0.4-0.6,0.9-0.8,1.2c-0.3,0.4-0.5,0.8-0.7,1.1
	c-0.1,0.1-0.2,0.3-0.3,0.4c-0.1,0.1-0.1,0.3-0.2,0.4c-0.1,0.1-0.1,0.2-0.2,0.3c0.1-0.3,0.3-0.6,0.4-0.8c0.1-0.2,0.1-0.3,0.2-0.5
	c1.3-2.9,2.5-5.7,3.8-8.5c6.6-14.4,13.8-28.2,21.2-41.5c1-1.8,2-3.5,3-5.3c2.6-4.8,5.4-9.4,8.1-14c1.6-2.7,3.2-5.3,4.8-7.9
	c4.9-7.9,9.7-15.6,14.5-22.8c1.6-2.4,3.2-4.8,4.8-7.1c0.9-1.4,1.9-2.8,2.8-4.1c1.8-2.7,3.7-5.3,5.5-7.9c3-4.4,6-8.6,9-12.6
	c1.4-1.9,2.7-3.7,4-5.4c12.4-16.7,22.6-29.2,28.5-36.2c0.3-0.3,0.6-0.7,0.9-1c2.2-2.6,3.8-4.4,4.4-5.1c0.1-0.1,0.1-0.1,0.2-0.2
	c0.1-0.1,0.1-0.2,0.1-0.2c150.5-198.4,381.2-12.4,381.2-12.4C2417,656.4,2400.9,648.9,2282,662.6z M2151.2,350.2
	c98.7-33.3,192.6,23.7,194.9,25c-248.8-89.9-352.7,148.3-358,160.9c35.5-92.6,81.9-144.1,129.4-170.9c-91.6,23.1-140.3,98-143.4,103
	C2024.9,368.8,2106.6,351.6,2151.2,350.2z M1999.2,738.2c-0.9,1.7-1.9,3.4-2.8,5c-6.3,11.5-11.2,21-14.5,27.8
	c-0.7,1.3-1.3,2.6-1.8,3.7c-0.4,0.8-0.7,1.5-1,2.2c-0.3,0.7-0.6,1.3-0.9,1.8c-0.4,0.8-0.7,1.5-1,2c1.8-4.6,3.7-9,5.5-13.4
	c1.4-3.3,2.8-6.6,4.2-9.9c4.7-11,9.5-21.6,14.3-31.8c1.2-2.5,2.4-5,3.5-7.5c0.1-0.2,0.1-0.3,0.3-0.5c1.3-2.6,2.5-5.2,3.8-7.8
	c1.3-2.8,2.7-5.6,4.1-8.3c1.8-3.4,3.5-6.8,5.2-10.2c0.5-1,1-2.1,1.6-3.1c1-2.1,2.1-4.2,3.2-6.2c1.4-2.6,2.8-5.3,4.3-7.9
	c0.4-0.8,0.9-1.6,1.3-2.4c3.4-6.2,6.8-12.2,10.2-18.1c1.8-3,3.5-6,5.3-8.9c3.2-5.3,6.4-10.4,9.6-15.4c0.8-1.3,1.7-2.6,2.5-3.9
	c11.9-18.5,24-35.1,36.1-50c1.8-2.2,3.6-4.4,5.4-6.6c3.6-4.3,7.2-8.4,10.8-12.4c1.6-1.8,3.2-3.5,4.8-5.2c1.3-1.4,2.6-2.8,4-4.2
	c1.7-1.8,3.4-3.5,5-5.2l2.7-2.7c1.8-1.8,3.5-3.4,5.2-5.1c3.5-3.3,6.9-6.5,10.4-9.6c0.1-0.1,0.3-0.2,0.4-0.3c3-2.6,6-5.2,9-7.7
	c2.1-1.7,4.1-3.4,6.2-5c1.8-1.4,3.5-2.7,5.2-4c1.7-1.3,3.5-2.6,5.2-3.8c0.9-0.7,1.8-1.3,2.7-1.9c1.3-1,2.7-1.9,4-2.8
	c1.2-0.9,2.5-1.7,3.7-2.5c12.8-8.5,25.6-15.4,38.1-21c1.8-0.8,3.6-1.6,5.4-2.4c1-0.4,1.9-0.8,2.8-1.2c2.7-1.1,5.3-2.1,8-3.1
	c1.7-0.6,3.4-1.2,5.1-1.8c1.2-0.4,2.4-0.8,3.6-1.2c1.2-0.4,2.4-0.7,3.6-1.1c2.2-0.7,4.5-1.3,6.8-2c1.7-0.4,3.3-0.9,5-1.3
	c1.8-0.4,3.5-0.9,5.2-1.2c1.3-0.3,2.6-0.6,3.9-0.9c1.3-0.3,2.6-0.5,3.9-0.7c2.6-0.5,5.2-0.9,7.8-1.3c0.7-0.1,1.5-0.2,2.2-0.3
	c0.6-0.1,1.2-0.1,1.8-0.2c1.2-0.2,2.4-0.3,3.7-0.4c1.3-0.1,2.5-0.3,3.8-0.4c1.4-0.1,2.7-0.3,4.1-0.4c1.4-0.1,2.8-0.2,4.1-0.3
	c2.4-0.1,4.7-0.3,7.1-0.3c2.3-0.1,4.7-0.1,7-0.1c3.4,0,6.7,0.1,10,0.2c1.7,0.1,3.3,0.1,5,0.3c1.6,0.1,3.2,0.2,4.9,0.4
	c1.3,0.1,2.6,0.2,3.9,0.4c1.7,0.2,3.5,0.4,5.2,0.6c1.3,0.2,2.6,0.3,4,0.5c1.8,0.3,3.5,0.5,5.2,0.8c2.2,0.3,4.3,0.7,6.5,1.1
	c10.2,1.9,19.9,4.5,29,7.3c2.3,0.7,4.5,1.5,6.7,2.2c0,0,0,0,0,0c2.2,0.7,4.3,1.5,6.5,2.3c0,0,0,0,0,0c1.6,0.6,3.2,1.2,4.7,1.8
	c1.6,0.6,3.1,1.2,4.6,1.8c3,1.2,6,2.5,8.8,3.8c1.9,0.9,3.7,1.7,5.5,2.6c1.8,0.9,3.6,1.8,5.3,2.6c1.3,0.6,2.5,1.3,3.8,1.9
	c1.3,0.6,2.5,1.3,3.7,1.9c1.6,0.9,3.1,1.7,4.6,2.5c1.5,0.8,2.9,1.7,4.3,2.5c1.4,0.8,2.7,1.6,4,2.4c2.4,1.5,4.7,2.9,6.8,4.3
	c0.7,0.4,1.4,0.9,2,1.3c0,0,0,0,0,0c1.3,0.9,2.5,1.7,3.7,2.5c1.2,0.8,2.2,1.5,3.2,2.2c0.8,0.6,1.5,1.1,2.2,1.6
	c1.6,1.2,2.9,2.2,3.9,2.9c0.6,0.4,1,0.8,1.3,1c0.2,0.1,0.3,0.3,0.4,0.3c-2.1-1.2-4.1-2.3-6.2-3.4c-8.3-4.4-16.5-8.4-24.7-11.9
	c-2.2-0.9-4.4-1.8-6.5-2.7c-2.2-0.9-4.3-1.7-6.5-2.5c-2.2-0.8-4.3-1.6-6.5-2.4c-2.2-0.7-4.3-1.5-6.4-2.2c-2.8-0.9-5.7-1.8-8.5-2.6
	c-5.6-1.6-11.2-3.1-16.8-4.3c-2.2-0.5-4.5-1-6.7-1.4c-0.5-0.1-1-0.2-1.6-0.3c-1.7-0.3-3.4-0.6-5.1-0.9c-2.4-0.4-4.8-0.8-7.2-1.1
	c-1.9-0.3-3.8-0.5-5.6-0.7c-0.3,0-0.6,0-0.9-0.1c-1.9-0.2-3.8-0.4-5.7-0.6c-1.8-0.1-3.5-0.3-5.3-0.4c-0.9,0-1.8-0.1-2.7-0.1
	c-1.3-0.1-2.7-0.1-4-0.1c-1.2-0.1-2.4-0.1-3.5-0.1c-1.5,0-2.9,0-4.4,0c-1.9,0-3.9,0-5.8,0.1c-2.4,0-4.7,0.1-7.1,0.3
	c-1.3,0.1-2.7,0.1-4,0.3c-0.4,0-0.9,0-1.3,0.1c-1.8,0.1-3.5,0.3-5.2,0.5c-0.7,0-1.4,0.1-2.1,0.2c-0.9,0.1-1.8,0.2-2.6,0.3
	c-0.4,0-0.8,0.1-1.2,0.1c-1.2,0.1-2.4,0.3-3.5,0.4c-2.2,0.3-4.4,0.7-6.6,1c-3.1,0.5-6,1-9.1,1.7c-0.2,0-0.3,0.1-0.5,0.1
	c-1.6,0.3-3.2,0.7-4.7,1c-1.3,0.3-2.5,0.6-3.7,0.9c-1.2,0.3-2.4,0.6-3.7,0.9c-3.4,0.9-6.9,1.9-10.2,2.9c-1.2,0.3-2.3,0.7-3.4,1.1
	c-1.5,0.5-3,1-4.5,1.5c-0.8,0.3-1.5,0.5-2.3,0.8c-1.5,0.5-3,1.1-4.5,1.6c-1,0.4-2.1,0.8-3.1,1.2c-0.3,0.1-0.5,0.1-0.7,0.3
	c-1.7,0.6-3.4,1.3-5.1,2c-2.6,1-5.2,2.2-7.8,3.3c-0.8,0.3-1.6,0.7-2.4,1c-0.4,0.2-0.8,0.4-1.2,0.6c-2.1,1-4.1,1.9-6.2,2.9
	c-3.7,1.8-7.4,3.7-11,5.7c-1.6,0.9-3.3,1.8-5,2.8c-1.8,1-3.5,2-5.2,3c-2.4,1.4-4.9,2.9-7.2,4.4c-1.7,1-3.4,2.1-5.1,3.2
	c-0.7,0.4-1.3,0.9-2,1.3c-2.4,1.5-4.7,3.1-7,4.7c-4,2.7-7.8,5.5-11.7,8.3c-1.8,1.3-3.5,2.6-5.2,4c-3.1,2.4-6.1,4.8-9.1,7.2
	c-2.5,2-5,4.1-7.4,6.2c-2.4,2.1-4.9,4.2-7.2,6.3c-2.4,2.1-4.8,4.3-7.2,6.5c-2.4,2.2-4.7,4.4-7,6.6c-10.4,9.9-20.3,20.2-29.6,30.7
	c-2.1,2.3-4.1,4.7-6.2,7c-2.3,2.6-4.5,5.3-6.8,7.9c-1.8,2.1-3.5,4.1-5.1,6.2c-1,1.2-1.9,2.4-2.9,3.5c-1.9,2.4-3.8,4.7-5.6,7.1
	c-1.9,2.4-3.7,4.7-5.5,7.1c-2.6,3.4-5.1,6.7-7.6,10.1c-13.7,18.5-25.8,36.7-36.1,53.2c-0.5,0.8-1,1.6-1.5,2.4
	c-1.5,2.4-2.9,4.6-4.2,6.9c-1.4,2.3-2.7,4.5-4,6.6c-1.2,1.9-2.3,3.8-3.4,5.7C2004.1,729.4,2001.6,733.9,1999.2,738.2z M2192.6,1049
	c-27.1-3.5-116.4-9-184.5,56.7C2009.2,1103.6,2048.8,1027.7,2192.6,1049z M2016,1152.9c0,0,3.7-83.5,144.6-82.1
	C2160.6,1070.8,2054.3,1079.6,2016,1152.9z M2142,1096.7c93.9,1.3,111.9,2.5,111.9,2.5l-98.2,4.4c0,0-86.4-6.9-135.6,76.4
	C2021,1177.4,2049.5,1095.5,2142,1096.7z M2215.1,1496.6c-21.2-15.1-90.9-53.2-222.4-21.7
	C1992.7,1474.8,2096.7,1405.5,2215.1,1496.6z M2197.2,1608.7c-0.1-0.1-0.4-0.4-0.7-0.7c-0.1-0.1-0.3-0.3-0.5-0.5
	c-0.2-0.2-0.4-0.4-0.7-0.7c-0.4-0.4-1-0.9-1.6-1.5c-2.8-2.6-7.1-6.5-12.8-11.1c-0.6-0.5-1.3-1.1-1.9-1.6c-2.2-1.8-4.5-3.7-7-5.6
	c-1.5-1.2-3.1-2.4-4.8-3.7c-0.8-0.6-1.7-1.2-2.5-1.9c-1.4-1-2.8-2.1-4.3-3.1c-0.9-0.6-1.8-1.3-2.7-1.9c-0.9-0.7-1.9-1.3-2.8-2
	c-2.1-1.5-4.3-2.9-6.5-4.4c-4.4-3-9.1-6-14.1-9c-1.2-0.7-2.5-1.5-3.8-2.2c-1.2-0.7-2.5-1.5-3.8-2.2c-2-1.2-4.1-2.3-6.2-3.5
	c-3.2-1.8-6.5-3.5-9.9-5.2c-1.4-0.7-2.8-1.4-4.2-2.1c-2.1-1-4.1-2-6.2-2.9c-2-0.9-4-1.8-6-2.7c-0.3-0.1-0.6-0.2-0.8-0.3
	c-1.9-0.8-4-1.7-5.9-2.5c-2.2-0.9-4.4-1.8-6.6-2.6c-1.3-0.5-2.8-1-4.1-1.5c-1.5-0.5-2.9-1-4.4-1.5c-0.7-0.3-1.5-0.5-2.3-0.8
	c-1-0.3-1.9-0.6-2.9-0.9c-3.2-1-6.5-2-9.9-2.9c-2.4-0.6-4.7-1.2-7.1-1.8c-4.7-1.1-9.5-2.1-14.3-2.9c-1.5-0.3-3.1-0.5-4.6-0.7
	c-1.8-0.3-3.7-0.5-5.6-0.7c-1.3-0.1-2.6-0.3-3.9-0.4c-1.5-0.1-2.9-0.3-4.4-0.4c-1.6-0.1-3.3-0.2-5-0.3c-1.5-0.1-3.1-0.1-4.7-0.2
	c-1.4,0-2.9-0.1-4.3-0.1h-1.6c-4.3,0-8.5,0.2-12.8,0.5c-1.3,0.1-2.6,0.2-4,0.3c-1.2,0.1-2.3,0.3-3.5,0.4c-2.3,0.3-4.6,0.6-6.9,1
	c0,0,56-31.7,128.7,13.5c13.2,8.2,24.7,15.9,34.7,22.9c1.7,1.2,3.3,2.3,4.9,3.5c5.3,3.8,10.1,7.4,14.6,10.8c0.9,0.7,1.7,1.3,2.5,2
	c1.6,1.3,3.2,2.5,4.7,3.7c2.1,1.6,4,3.2,5.7,4.7c2.1,1.8,4,3.4,5.9,5c1.3,1.2,2.6,2.3,3.8,3.4c5.3,4.7,9.2,8.6,11.9,11.5
	c0.7,0.7,1.4,1.4,1.9,2c1.2,1.3,2.1,2.4,2.6,3.1C2196.9,1608.3,2197.1,1608.5,2197.2,1608.7L2197.2,1608.7z M2228.9,2250.7
	c0.1,1.5,0.3,2.9,0.4,4.3c0.6,6.2,1,11.2,1.5,14.8c0,0.6,0.1,1.2,0.2,1.7c0,0.5,0.1,1,0.1,1.5c-0.2-1.4-0.4-2.8-0.6-4.3
	C2229.8,2262.7,2229.3,2256.7,2228.9,2250.7z M2327.7,1800.5c-0.1,3.4-0.2,6.8-0.4,10.2c0,0-2.5,88.3-47.9,206.5
	c0,0-56,123.3-50.4,233.4c-3.7-44.1-8.1-134.9,10.7-194.3c25.5-80.9,65.9-128.7,64-223.9c-1.9-95.2-49.7-218.9-159.8-307.2
	c0,0-70.3-59.7-164.2-19.3l-2.5-8.7c0,0,61.8-38.4,128.9-10.4c67.2,28,149.7,86.9,197.6,249.2c0,0-0.1-3-0.5-8.2
	c-0.1-1-0.1-2-0.2-3.1c-0.1-1.1-0.2-2.2-0.3-3.5c-0.1-1.2-0.2-2.4-0.3-3.7c-0.2-1.8-0.4-3.6-0.6-5.6c-0.1-1.1-0.3-2.2-0.4-3.4
	c-0.1-0.9-0.2-1.8-0.3-2.7c-0.2-1.3-0.4-2.8-0.6-4.2c0-0.1,0-0.3-0.1-0.4c-0.1-0.9-0.3-1.7-0.4-2.6c-0.7-5-1.6-10.3-2.6-15.8
	c-0.3-1.3-0.5-2.5-0.7-3.8c-0.2-1-0.4-2-0.6-3c-0.4-1.9-0.8-3.8-1.3-5.7c-0.9-4.2-2-8.4-3.1-12.7c-0.3-1-0.6-2.1-0.9-3.1
	c-0.5-2-1.1-3.9-1.7-5.9c-0.2-0.7-0.4-1.4-0.6-2.1c-0.5-1.5-1-3.1-1.5-4.6c-0.6-1.7-1.1-3.4-1.7-5c-0.7-2-1.5-4-2.3-6
	c-0.7-1.8-1.4-3.6-2.2-5.4c-0.7-1.7-1.5-3.4-2.2-5.1c0-0.1-0.1-0.2-0.1-0.3c-0.9-1.9-1.8-3.8-2.7-5.6c-0.5-1-1-1.9-1.5-2.9
	c-0.4-0.8-0.9-1.6-1.3-2.4c-0.3-0.5-0.5-1-0.8-1.5c-0.9-1.6-1.8-3.1-2.6-4.6c-0.9-1.5-1.8-2.9-2.8-4.3c-1-1.6-2.1-3.1-3.1-4.6
	c-1-1.4-2.1-2.8-3.1-4.1c-0.6-0.8-1.3-1.7-2-2.5c-0.6-0.7-1.1-1.3-1.7-2l0.3,0.3c0.1,0.1,0.3,0.3,0.4,0.4c2,2.1,6.5,6.8,12.3,14.4
	c0.4,0.6,0.9,1.2,1.3,1.8c4.6,6.1,9.9,13.9,15.3,23.3c1,1.8,2.1,3.6,3.1,5.5c0.5,0.9,1,1.9,1.6,2.9c0.3,0.6,0.6,1.1,0.9,1.7
	c0.3,0.6,0.6,1.2,0.9,1.8c1.1,2.1,2.2,4.3,3.3,6.6c1.1,2.3,2.2,4.6,3.2,7c1.6,3.6,3.2,7.3,4.8,11.2c1.2,3.1,2.4,6.2,3.6,9.4
	c0.5,1.3,1,2.7,1.5,4.1c0.8,2.3,1.6,4.7,2.4,7.1c0.8,2.5,1.6,5.1,2.4,7.8c2.2,7.3,4.1,15,5.9,23.1c0.2,1,0.4,2.1,0.7,3.2
	c0.7,3.3,1.3,6.8,1.9,10.2c0.3,1.8,0.6,3.5,0.9,5.3c0.3,2.1,0.7,4.2,0.9,6.4c0.5,3.1,0.9,6.2,1.2,9.3c0.2,1.9,0.4,3.8,0.6,5.7
	c0.2,2.3,0.4,4.6,0.6,6.9c0.1,1.8,0.3,3.6,0.4,5.5c0.1,1.3,0.2,2.6,0.2,3.9c0.1,1.6,0.2,3.3,0.2,5c0.1,2.4,0.2,4.9,0.2,7.4
	c0,1.3,0,2.5,0,3.8C2327.8,1791.2,2327.8,1795.8,2327.7,1800.5z M2215.3,1496.7c4,2.9,6.3,4.9,6.8,5.4
	C2219.8,1500.3,2217.5,1498.4,2215.3,1496.7z M2339.2,1707.3c2.2-10.9,22.9-140.2-180.5-337.6c0,0-136.8-110.7-133.7-161.1
	c0,0-3.1-39.2,40.4-51c43.5-11.8,170.4-11.2,170.4-11.2s90.6-0.6,115,50.3c-2-2.4-40.7-47.9-168.5-31.6c-0.1,0-0.1,0-0.2,0
	c19.1,5.9,39,16.6,59.1,34c0,0-97.4,91.3-201.4-0.1c-4.4,3.3-9.6,13.2,12.6,41.3c30.5,38.6,81.2,71.5,120.3,112.6
	C2211.9,1393.9,2374.7,1557,2339.2,1707.3z M2237.6,1314.4c0.1,0,0.1,0,0.2,0.1c0.2,0.1,0.4,0.1,0.6,0.1c-0.3,0-0.6,0-0.8-0.1
	c-1.2-0.1-2.3-0.3-3.4-0.6c-0.3,0-0.5-0.1-0.7-0.1c-1.2-0.2-2.4-0.4-3.6-0.7c-1.6-0.3-3.2-0.6-4.8-1c-1.4-0.3-2.7-0.6-4-1
	c-0.1,0-0.1,0-0.1,0c-0.9-0.2-1.8-0.4-2.8-0.7c-1.5-0.4-3-0.8-4.4-1.2c-2-0.6-4-1.2-5.9-1.8c-1.4-0.4-2.8-0.9-4.2-1.4
	c-0.9-0.3-1.9-0.6-2.8-1c-1.9-0.7-3.7-1.4-5.5-2.1c-3.6-1.4-7.1-2.9-10.6-4.5c-1.7-0.8-3.4-1.6-5-2.4c-1.7-0.8-3.3-1.6-4.9-2.4
	c-1.6-0.8-3.2-1.6-4.7-2.5c-1.5-0.8-3-1.6-4.5-2.5c-1.5-0.8-3-1.7-4.5-2.6c-1.3-0.7-2.5-1.5-3.7-2.2c-9.6-6-17.8-11.9-24.3-17.1
	c-2-1.6-3.8-3.1-5.4-4.4c-2.5-2.1-4.6-4-6.4-5.6c-1.2-1.1-2.2-2-3-2.8c-1-1-1.8-1.8-2.3-2.2c-0.1-0.1-0.2-0.2-0.3-0.3
	c-0.1-0.1-0.2-0.3-0.3-0.3c22.5,14,41.3,24.9,56.8,33.5c1.9,1.1,3.8,2.1,5.7,3.1c2.1,1.1,4.1,2.2,6,3.2c1,0.5,2.1,1.1,3,1.6
	c3,1.5,5.8,3,8.5,4.4c9.1,4.6,16.6,8,22.6,10.6c0.8,0.3,1.6,0.7,2.4,1c3.9,1.6,7.2,2.9,9.8,3.8c0.5,0.2,1,0.3,1.5,0.5
	c1.5,0.5,2.7,0.9,3.7,1.2C2236.3,1314,2237,1314.2,2237.6,1314.4z M2259.9,1419.2c-29.9-78-192.5-177.7-197.6-180.8
	C2239.1,1325.8,2259.2,1415.9,2259.9,1419.2z M2366.5,2237.9c-60.6-110.5,30.3-194.9,34.7-198.8
	C2327.9,2129.6,2365.2,2234.5,2366.5,2237.9z M2495.2,1856.1c53.5-57.2,144.9-207.7,84-337c2.3,3.3,111.8,164.1-4.9,287.1
	c2.7-3.4,50.6-65.2,38.5-130.5c0,0-7.2,75.1-75.9,154.2c-68.5,78.9-116.9,117.7-111.9,151.8
	C2424.9,1981.7,2404.9,1952.7,2495.2,1856.1z"/>
<path fill="#6A3627" d="M1881.6,2848.4c20.1-11.3,39.6-24.9,57-40.6v33.4C1903,2849,1881.6,2848.4,1881.6,2848.4z"/>
<path fill="#6A3627" d="M1992.7,1474.8c0,0,104-69.4,222.4,21.7C2193.8,1481.4,2124.1,1443.3,1992.7,1474.8z"/>
<path fill="#6A3627" d="M2115.5,2621.4c5.8,47.1-4.4,100.1-50.8,150.8c7-9.1,88.1-120.3-17.9-296.7c1.8,2,50.6,56,65.7,128
	c3.8-18.5,8.4-51.5-0.4-78.9C2112.1,2524.6,2131.2,2555.4,2115.5,2621.4z"/>
<path fill="#6A3627" d="M2016,1152.9c0,0,3.7-83.5,144.6-82.1C2160.6,1070.8,2054.3,1079.6,2016,1152.9z"/>
<path fill="#6A3627" d="M2008.1,1105.7c1-2.1,40.7-78,184.5-56.7C2165.6,1045.5,2076.2,1040,2008.1,1105.7z"/>
<path fill="#6A3627" d="M2197.4,1608.9c-3-2.9-107.5-105.5-222.9-87.1c0,0,56-31.7,128.7,13.5
	C2173.7,1579.1,2196.1,1607.2,2197.4,1608.9z"/>
<path fill="#724034" stroke="#724034" stroke-miterlimit="10" d="M2133.8,1638.2c0,0-0.3-0.1-0.9-0.4c0.8-1,1.2-1.7,1.2-1.7l-14-7.5
	c0,0.7-0.3,1.3-0.7,1.9c-0.3,0.4-0.7,0.8-1.1,1.2c7.5,3.6,12,5.4,12,5.4s1,0.4,2.2,1.2c-4.4,5.5-16.9,18.6-33.3,12.6
	c0,0-10.3-1-17.2-13.5c0,0-29,19.6-49-12.1c0,0-19.1,21.9-45.7-5.1c0,0-7.9,13.5-21.9,11.2c-14-2.3-18.7-6.5-21.4-13.5
	c0,0-1.9,2.5-5.1,5.1v-130.4c0.5,0,1,0,1.4-0.1c1.6-0.2,3.5-0.6,5.6-1.3c-0.3-4.6-0.6-9.4-0.8-14.3c12.4-2,25.7-6.2,39.7-13.7
	c0,0,0,0,0.1,0c10-6.6,77.4-40.9,77.4-40.9s41.3-26.1,10.4-58.5c0,0-50.7-74.7-81.6-95.6c0,0-23.1-13.6-52.2-6.5V136.2
	c-47.2-1.9-97,3.1-134.5,24.4c0,0-118.1-7.5-198.5,70.9c0,0-132.3,50.1-190,156.9c0,0-99.2,59.6-138.9,232.5
	c0,0-65.2,145.5-62.4,316.6s1.9,332.7-17,398.8c-18.9,66.2-106.8,271.2-41.6,429c65.2,157.8,161.6,250.5,247.6,301.5
	c86,51,121.9,118.1,35,207c-86.9,88.8-123.8,76.5-148.4,182.4c0,0,49.1-56.7,111.5-55.7c60.9,0.9,101.8-48.4,103.7-50.7
	c-2.6,4.7-139.1,250.4,190.3,401.1c0,0-93.7-134.9-100.3-220.9c0,0,39.7,53.9,72.8,73.7c33.1,19.9,128.5,84.1,106.8,217.4
	c0,0,166.3-208.9,68-347.8c0,0,48.4,20.2,95.7,69.3V1788c0.3-2.6,0.6-4,0.6-4s-0.2,0.3-0.6,0.9v-145.1
	c56.6,3.5,113.4,19.7,113.4,19.7s67.2,24.3,82.4,5.1C2149.6,1645.5,2133.8,1638.2,2133.8,1638.2z M1989.9,1271.5
	c30.5,20.2,80.5,92.4,80.5,92.4c30.5,31.4-10.3,56.6-10.3,56.6s-66.5,33.1-76.4,39.5c0,0,0,0-0.1,0c-13.8,7.2-27,11.3-39.1,13.3
	c-2,0.3-4,0.6-5.9,0.8v-208.9C1967.2,1258.4,1989.9,1271.5,1989.9,1271.5z"/>
<path fill="#6A3627" d="M2194.7,1049.3c2.3,0.3,3.9,0.6,4.9,0.8C2198,1049.8,2196.3,1049.5,2194.7,1049.3z"/>
<path fill="#6A3627" d="M2215.3,1496.7c4,2.9,6.3,4.9,6.8,5.4C2219.8,1500.3,2217.5,1498.4,2215.3,1496.7z"/>
<path fill="#6A3627" d="M2239.4,1314.8c-72.7-10.7-122.5-62.2-124-63.8C2205.5,1307,2235.4,1314,2239.4,1314.8z"/>
<path fill="#6A3627" d="M2228.9,2250.7c1.1,12.7,2.1,21.6,2.4,24.6C2230.2,2267.2,2229.4,2258.9,2228.9,2250.7z"/>
<path fill="#6A3627" d="M2062.3,1238.4c176.7,87.4,196.9,177.5,197.6,180.8C2230,1341.2,2067.4,1241.5,2062.3,1238.4z"/>
<path fill="#6A3627" d="M1974,468.3c50.9-99.5,132.5-116.8,177.2-118.1c98.7-33.3,192.6,23.7,194.9,25
	c-248.8-89.9-352.7,148.3-358,160.9c35.5-92.6,81.9-144.1,129.4-170.9C2025.9,388.4,1977.2,463.3,1974,468.3z"/>
<path fill="#6A3627" d="M2020.1,1180c0.9-2.5,29.4-84.5,121.9-83.3c93.9,1.3,111.9,2.5,111.9,2.5l-98.2,4.4
	C2155.7,1103.6,2069.2,1096.7,2020.1,1180z"/>
<path fill="#6A3627" d="M2327.3,1810.7c0,0-2.5,88.3-47.9,206.5c0,0-56,123.3-50.4,233.4c-3.7-44.1-8.1-134.9,10.7-194.3
	c25.5-80.9,65.9-128.7,64-223.9c-1.9-95.2-49.7-218.9-159.8-307.2c0,0-70.3-59.7-164.2-19.3l-2.5-8.7c0,0,61.8-38.4,128.9-10.4
	c67.2,28,149.7,86.9,197.6,249.2c0,0-3.1-101.8-47.4-150.8C2258.5,1587.4,2334.7,1661.2,2327.3,1810.7z"/>
<path fill="#6A3627" d="M2469.9,510.8c-292-163.3-485.4,254.2-492.9,270.7C2182.4,274.8,2465.6,507.3,2469.9,510.8z"/>
<path fill="#6A3627" d="M2172.7,1352.9c39.1,41,201.9,204.1,166.5,354.4c2.2-10.9,22.9-140.2-180.5-337.6
	c0,0-136.8-110.7-133.7-161.1c0,0-3.1-39.2,40.4-51c43.5-11.8,170.4-11.2,170.4-11.2s90.6-0.6,115,50.3c-2-2.4-40.7-47.9-168.5-31.6
	c-0.1,0-0.1,0-0.2,0c19.1,5.9,39,16.6,59.1,34c0,0-97.4,91.3-201.4-0.1c-4.4,3.3-9.6,13.2,12.6,41.3
	C2082.9,1278.9,2133.6,1311.9,2172.7,1352.9z"/>
<path fill="#6A3627" d="M2401.2,2039c-73.2,90.5-35.9,195.5-34.7,198.8C2305.8,2127.4,2396.8,2043,2401.2,2039z"/>
<path fill="#6A3627" d="M2522.1,713.6c-105.1-57.2-121.3-64.7-240.1-51c-117.8,13.6-255.3,241.4-257.4,245
	c44.1-100.8,116.3-181.6,116.3-181.6C2291.4,527.6,2522.1,713.6,2522.1,713.6z"/>
<path fill="#6A3627" d="M2527.1,824.3c-111.9-67.8-136.8-18.7-190.3,17.4c-53.5,36.1-72.1,34.8-72.1,34.8c35.4-20.5,74.6-64,74.6-64
	C2422,725.4,2527.1,824.3,2527.1,824.3z"/>
<path fill="#6A3627" d="M2588.5,938.4c-4.9-8.2-97-160.5-215.6-106C2372.9,832.4,2489.7,735.5,2588.5,938.4z"/>
<path fill="#6A3627" d="M2512.9,1344.1c22.6,28.3,54.8,78.1,61.9,139c0,0-36.5-113.8-134.3-190.8c-25-15.7-52.4-30.7-82.1-43.8
	c5.3,1.6,173.6,54.2,244.3,181.9C2602.8,1430.4,2570.3,1390.4,2512.9,1344.1z"/>
<path fill="#6A3627" d="M2574.3,1806.2c2.7-3.4,50.6-65.2,38.5-130.5c0,0-7.2,75.1-75.9,154.2c-68.5,78.9-116.9,117.7-111.9,151.8
	c0,0-20-29,70.3-125.6c53.5-57.2,144.9-207.7,84-337C2581.5,1522.3,2691.1,1683.1,2574.3,1806.2z"/>
<path fill="#FFFFFF" stroke="#000000" stroke-width="5" stroke-miterlimit="10" d="M2241.3,1199.1c0,0-97.4,91.3-201.4-0.1
	c-0.4-0.4-0.9-0.8-1.3-1.2c0,0,64.6-57.4,143.7-32.7C2201.3,1171.1,2221.2,1181.7,2241.3,1199.1z"/>
<path fill="none" d="M1932.1,1285.4c-0.1-0.8-0.1-1.4-0.1-2C1932,1284,1932,1284.7,1932.1,1285.4z"/>
<path fill="#FFFFFF" stroke="#FFFFFF" stroke-miterlimit="10" d="M2133.8,1638.2c0,0-0.3-0.1-0.9-0.4c-1.9-1-6.7-3.4-13.6-7.2
	c-0.3,0.4-0.7,0.8-1.1,1.2c7.5,3.6,12,5.4,12,5.4s1,0.4,2.2,1.2c-4.4,5.5-16.9,18.6-33.3,12.6c0,0-10.3-1-17.2-13.5
	c0,0-29,19.6-49-12.1c0,0-19.1,21.9-45.7-5.1c0,0-7.9,13.5-21.9,11.2c-14-2.3-18.7-6.5-21.4-13.5c0,0-1.9,2.5-5.1,5.1v-69.7
	c-20.9-5.9-36.2,9.9-36.2,9.9c-17.1-29.4-44.4,2.9-44.4,2.9c-11.4-14.7-46.9,14.7-46.9,14.7l-74.1,48.5c-0.7,0.5-1.3,1-1.9,1.5
	c-2.2,1.8-4.3,3.4-6.2,5c-47.4,40.3,23.2,37.2,48,28.8c26-8.8,31.7-5.9,98.2-21.3c18.8-4.4,41.2-5,63.5-3.6
	c56.6,3.5,113.4,19.7,113.4,19.7s67.2,24.3,82.4,5.1C2149.6,1645.5,2133.8,1638.2,2133.8,1638.2z"/>
<path fill="#33261E" d="M1880.3,1482.4c0,0-108.2-61.9-229.5,23.5C1650.8,1505.9,1719.3,1449.4,1880.3,1482.4z"/>
<path fill="#33261E" d="M1899.6,1502.4c0,0-61.7-38.4-128.9-10.4c-67.2,28-149.7,86.9-197.6,249.2c0,0,3.1-101.8,47.4-150.8
	c0,0-78.5,73.7-71.1,225.4c0,0,2.5,88.3,47.9,206.5c0,0,65.3,143.7,47.9,259.3c0,0,17.4-139.3-8.1-220.2
	c-25.5-80.8-65.9-128.7-64.1-223.9c1.9-95.2,49.8-218.9,159.8-307.2c0,0,70.3-59.7,164.2-19.3L1899.6,1502.4z"/>
<path fill="#33261E" d="M1900.4,1519.9c0,0-56-31.7-128.7,13.5c-72.8,45.2-94.2,73.7-94.2,73.7S1783.3,1501.3,1900.4,1519.9z"/>
<path fill="#33261E" d="M1938.6,1788c-1,6.8-2.4,21.5,0,38.4v46.4c-2.8-7.1-3.7-11.1-3.7-11.1c-2.2,22-0.9,39.5,3.7,55.2v38.5
	c-50-91.8-5.9-161.9,0-170.5c0.4-0.6,0.6-0.9,0.6-0.9S1938.9,1785.4,1938.6,1788z"/>
<path fill="#33261E" d="M1861.5,1745.4c0,0-130,100.8-73.4,239.4c0,0,30.5,66.5,71.5,124.4c0,0-80.1-162-67.5-187.7
	c0,0,21,73.7,34,81.6C1826.2,2003.1,1764.5,1844.9,1861.5,1745.4z"/>
<path fill="#33261E" d="M1686.1,2400.9c0,0,128.1,123.1,124.4,273.6C1810.5,2674.5,1775.7,2524,1686.1,2400.9z"/>
<path d="M2115.5,2621.4c5.8,47.1-4.4,100.1-50.8,150.8c7-9.1,88.1-120.3-17.9-296.7c1.8,2,50.6,56,65.7,128
	c3.8-18.5,8.4-51.5-0.4-78.9C2112.1,2524.6,2131.2,2555.4,2115.5,2621.4z"/>
<path fill="#FFFFFF" stroke="#1B1A1B" stroke-width="5" stroke-miterlimit="10" d="M1833.6,1195.1c0,0-99.5-88.3-202.7,1.2
	C1630.9,1196.3,1729.1,1288.4,1833.6,1195.1z"/>
<path fill="#33261E" d="M1852,1180.5c0,0-28-84.6-121.9-83.3c-93.9,1.2-111.9,2.5-111.9,2.5l98.3,4.4
	C1716.4,1104,1802.9,1097.2,1852,1180.5z"/>
<path fill="#33261E" d="M1856,1153.3c0,0-3.7-83.5-144.6-82.1C1711.4,1071.2,1817.8,1080.1,1856,1153.3z"/>
<path fill="#33261E" d="M1864,1106.2c0,0-40.1-81.2-192.6-55.5C1671.3,1050.7,1782.8,1027.8,1864,1106.2z"/>
<path fill="#33261E" d="M1458.5,1363.5c0,0-38.6,36.7-70.9,58.5c-32.3,21.8-113.2,89.6-120,228.2c0,0,18.7-148.6,125-217.7
	c0,0-47.3,57.2-54.1,131.2C1338.5,1563.8,1379.5,1450.6,1458.5,1363.5z"/>
<path fill="#33261E" d="M1762.8,1248.5c0,0-50.4,53.2-124.5,63.9C1638.2,1312.4,1665.3,1309.1,1762.8,1248.5z"/>
<path fill="#33261E" d="M1815.9,1235.9c0,0-167.5,101.7-197.8,181C1618.2,1416.8,1635.7,1324.9,1815.9,1235.9z"/>
<path fill="#33261E" d="M1352.8,829.9c0,0,105.1-98.9,187.8-11.8c0,0,39.2,43.5,74.6,64.1c0,0-18.7,1.2-72.1-34.8
	S1464.7,762.1,1352.8,829.9z"/>
<path fill="#33261E" d="M1507,838c0,0-116.9-97-215.8,106.3C1291.2,944.3,1385.1,782,1507,838z"/>
<path fill="#33261E" d="M1357.7,719.2c0,0,230.7-186,381.2,12.4c0,0,72.1,80.8,116.3,181.6c0,0-138.7-231.4-257.5-245
	C1479,654.5,1462.8,662,1357.7,719.2z"/>
<path fill="#33261E" d="M1264.4,1275.2c0,0,10-64.7,139.3-102C1403.8,1173.2,1296.8,1216.7,1264.4,1275.2z"/>
<path fill="#33261E" d="M1402.5,516.5c0,0,286.1-240.1,493.2,271.2C1895.7,787.6,1700.4,349.8,1402.5,516.5z"/>
<path fill="#33261E" d="M1899.2,519.4c-5.3-12.6-109.1-250.8-358-160.9c2.3-1.4,96.1-58.3,194.9-25c44.7,1.3,126.3,18.6,177.2,118.1
	c-3.2-5-51.9-79.9-143.4-103C1817.3,375.3,1863.7,426.8,1899.2,519.4z"/>
<path fill="#33261E" d="M1938.6,275.5v46.8c-7.7-26.8-19.1-52.5-35.9-70.2C1902.7,252.1,1922.5,256.4,1938.6,275.5z"/>
<path fill="#493E4A" stroke="#000000" stroke-width="3" stroke-miterlimit="10" d="M2158.8,1182.2c0,25.3-17.3,45.7-38.5,45.7
	c-21.3,0-38.6-20.4-38.6-45.7c0-3.6,0.3-7.1,1-10.4c19.3-8.1,43.8-14.4,71-12.1C2156.9,1166.3,2158.8,1174,2158.8,1182.2z"/>
<path fill="#534855" stroke="#1A191A" stroke-width="3" stroke-miterlimit="10" d="M1713.4,1179.4c0,25.3,17.3,45.7,38.5,45.7
	c21.3,0,38.6-20.4,38.6-45.7c0-3.6-0.3-7.1-1-10.4c-19.3-8.1-43.8-14.4-71-12.1C1715.2,1163.5,1713.4,1171.2,1713.4,1179.4z"/>
<ellipse cx="2122.8" cy="1189.7" rx="21.9" ry="23.3"/>
<ellipse fill="#1A191A" cx="1755.3" cy="1185" rx="21.9" ry="23.3"/>
<ellipse fill="#FFFFFF" cx="2142.3" cy="1183.2" rx="9.6" ry="10.3"/>
<ellipse fill="#FFFFFF" cx="1734.3" cy="1181.3" rx="9.6" ry="10.3"/>
<path fill="#4C352C" d="M2073,1361.2c0,0-50.7-74.7-81.6-95.6c0,0-23.1-13.6-52.2-6.5c-1.3,0.3-2.5,0.7-3.8,1c0,0-23.4-7.8-46-1.3
	c-22.7,6.4-87.6,76-104.3,104.6c-16.7,28.7,5.3,51.8,14.8,55.7c6.9,2.8,45.3,18.5,75.5,40c8,4.7,17.3,9.7,26,13.5c0,0,0.1,0,0.1,0
	c9.2,2.2,19.9,3.6,31.6,3c2-0.1,4.1-0.3,6.1-0.5c2-0.2,4.1-0.4,6.2-0.8c12.4-2,25.7-6.2,39.7-13.7c0,0,0,0,0.1,0
	c10-6.6,77.4-40.9,77.4-40.9S2103.9,1393.7,2073,1361.2z M2060.8,1417.9c0,0-66.5,33.1-76.4,39.5c0,0,0,0-0.1,0
	c-13.8,7.2-27,11.3-39.1,13.3c-2,0.3-4,0.6-5.9,0.8v-208.9c28.6-6.8,51.3,6.3,51.3,6.3c30.5,20.2,80.5,92.4,80.5,92.4
	C2101.5,1392.7,2060.8,1417.9,2060.8,1417.9z"/>
<path fill="#1B1A1B" d="M2072.4,1363.7c0,0-50.7-74.7-81.6-95.6c0,0-23.1-13.6-52.2-6.5V1250c-7.2,1.3-11.8,2.8-11.8,2.8
	c-41.3-14.6-65.6,6.5-65.6,6.5c-42.3,34.2-84,88.3-94.9,118.8c-10.9,30.5,22.2,54.6,38.2,63.1c11.5,6.1,58.2,25.9,83.2,36.5h0
	c9.9,5.5,30.6,12.8,44.4,14.5c2.4,0.3,4.5,0.4,6.3,0.3c0.5,0,1,0,1.4-0.1c1.6-0.2,3.5-0.6,5.6-1.3c-0.3-4.6-0.6-9.4-0.8-14.3
	c12.4-2,25.7-6.2,39.7-13.7c0,0,0,0,0.1,0c10-6.6,77.4-40.9,77.4-40.9S2103.3,1396.1,2072.4,1363.7z M2060.2,1420.4
	c0,0-66.5,33.1-76.4,39.5c0,0,0,0-0.1,0c-13.8,7.2-27,11.3-39.1,13.3c-2,0.3-4,0.6-5.9,0.8c-2.1,0.2-4.1,0.3-6,0.4
	c-11.7,0.6-22.3-0.7-31.4-2.9c0,0,0,0-0.1,0c-8.6-3.7-17.8-8.5-25.7-13.1c-29.8-20.7-67.8-36-74.5-38.7
	c-9.3-3.7-31.1-26.1-14.6-53.8c16.5-27.7,80.5-94.9,102.9-101c22.4-6.2,45.4,1.2,45.4,1.2c1.3-0.4,2.7-0.7,4-1
	c28.6-6.8,51.3,6.3,51.3,6.3c30.5,20.2,80.5,92.4,80.5,92.4C2100.9,1395.2,2060.2,1420.4,2060.2,1420.4z"/>
<path d="M1938.6,1611.5v11.5c-5.7,4.7-15.6,9.5-26.1,0.5c0,0-19.6,20.1-41.5-3.7c0,0-21.5,28-44.8,6c0,0-14,29-51.8,13.1
	c0,0-14.9,27.2-44.2-1.7c-0.5-0.4-0.9-0.9-1.4-1.4c-0.5-0.5-1-1-1.5-1.6l7.7-3.4l3-1.3c0,0,0.5,0.4,1.4,1.1h0
	c5.4,3.9,25.1,15.3,35.4-11.8c0,0,6.1,17.7,21,14.9c14.9-2.8,24.7-10.7,28.5-28c0,0,7.9,18.7,20,15.4c12.1-3.3,27.5-8.9,26.6-21
	c0,0,4.2,18.7,18.2,15.9s24.3-3.3,27.1-18.2C1916.2,1597.8,1924.1,1621.1,1938.6,1611.5z"/>
<path d="M2134.1,1636.1c0,0-0.4,0.6-1.2,1.7c-0.1,0.2-0.3,0.4-0.5,0.6c-1.2-0.9-2.2-1.2-2.2-1.2s-4.4-1.8-12-5.4
	c0.4-0.4,0.8-0.8,1.1-1.2c0.5-0.6,0.7-1.3,0.7-1.9L2134.1,1636.1z"/>
<path fill="#1B1A1B" d="M2133.8,1638.2c0,0-0.3-0.1-0.9-0.4c0.8-1,1.2-1.7,1.2-1.7l-14-7.5c0,0.7-0.3,1.3-0.7,1.9
	c-0.3,0.4-0.7,0.8-1.1,1.2c7.5,3.6,12,5.4,12,5.4s1,0.4,2.2,1.2c3.7,2.5,9.6,9-1.6,21.2c-14.9,16.2-80.9-4.4-80.9-4.4
	s-55.7-13.8-111.3-16.8c-21.9-1.2-43.8-0.6-62.2,3.1c-65.3,13.1-70.9,10.6-96.4,18.1c-23.8,7-90.9,9.6-49.8-22.4
	c2.6-2.1,5.7-4.2,9.2-6.6h0c0.4-0.3,0.9-0.6,1.4-0.9l72.8-41c0,0,34.8-24.9,46-12.5c0,0,26.8-27.4,43.5-2.5c0,0,15-13.4,35.4-8.4
	v-72.8c0.5,0,1,0,1.4-0.1c1.6-0.2,3.5-0.6,5.6-1.3c-0.3-4.6-0.6-9.4-0.8-14.3c-0.1-1.2-0.1-2.4-0.2-3.7c-2,0.3-4,0.6-5.9,0.8v-93.4
	c-2.7-40-5.1-75.5-6.2-90.9c1.4,25.9,1.3,79,0.9,130.7c-0.7-0.9-1.3-1.3-1.3-1.3s-1,0-3-0.6c-3.8-1.2-10.7-4.7-19.4-15.2
	c-13.1-15.9-41.9-45.7-83-32.2c-41,13.5,51.8,61.6,66.2,51.3c0,0,19.1,16.6,34.8,18.1c1.9,0.1,3.7,0.1,5.4-0.2
	c-0.1,11.9-0.3,23.4-0.5,34.3c0,1.3,0,2.5-0.1,3.7c0,4.9-0.1,9.6-0.2,14.1c-0.3,20.9-0.7,38-0.9,48.2c-0.1,0-0.1,0-0.2,0
	c-104.5-8.4-203.4,76.5-203.4,76.5c-80.2,22.4-69,115.7-69,115.7c9.3-67.2,42-73.7,42-73.7c19.6,42,109.1,17.7,109.1,17.7
	s81.2-17.7,119.4-18.7c2.9-0.1,6,0,9.3,0.1v-18.4c56.6,3.5,113.4,19.7,113.4,19.7s67.2,24.3,82.4,5.1
	C2149.6,1645.5,2133.8,1638.2,2133.8,1638.2z"/>
<path fill="#271D18" d="M2099.7,2178.8c-37.9-108.2-61-83.3-143.1-195.3c-7.1-9.6-13-19-18-28.2v-38.5c11,37.6,40.8,64.8,86.5,118.3
	C2089.7,2111.1,2099.7,2178.8,2099.7,2178.8z"/>
<path fill="#271D18" d="M2032,2009.3c-15.8-24.1-33.4-45.1-33.4-45.1c-37.1-40.6-53.5-74.8-60-91.5v-46.4c1.3,9.5,3.9,19.7,8.4,29.4
	C1962.5,1889.3,2027.9,2002.4,2032,2009.3z"/>
<path d="M2198.9,1741c0,0-3.7-65.3-44.8-85.8c0,0-1.9,28-42.9,29.9c-41,1.9-66.2-7.5-66.2-7.5s-66.1-17.5-106.3-19.4v-18.4
	c56.6,3.5,113.4,19.7,113.4,19.7s67.2,24.3,82.4,5.1c15.2-19.1-0.6-26.5-0.6-26.5s-0.3-0.1-0.9-0.4c0.8-1,1.2-1.7,1.2-1.7l-14-7.5
	c0,0.7-0.3,1.3-0.7,1.9c-15.4-8.6-41.4-24.2-68.6-46c-43.1-34.6-52.6-21.3-52.6-21.3c-24.7-27.2-43.7-1.5-43.7-1.5
	c-5.5-4.4-10.8-7-15.7-8.4v-60.7c0.5,0,1,0,1.4-0.1c1.6-0.2,3.5-0.6,5.6-1.3c1.2,22.1,2.1,40.3,2.4,51.2
	c97.1,13.7,177.2,74.6,177.2,74.6S2220.3,1658,2198.9,1741z"/>
<path d="M2082.3,1426.3c0,0,0,8.3-99,47.5c-10.9,5.9-26.9,14.1-37.7,17.3c-0.3-4.6-0.6-9.4-0.8-14.3c12.4-2,25.7-6.2,39.7-13.7
	c0,0,0,0,0.1,0c10-6.6,77.4-40.9,77.4-40.9s41.3-26.1,10.4-58.5c0,0-50.7-74.7-81.6-95.6c0,0-23.1-13.6-52.2-6.5V1250
	c14.6-2.6,39.8-3.8,59.7,11.5c29.9,23,80.9,89.6,80.9,89.6S2117.1,1394,2082.3,1426.3z"/>
<path fill="#412D24" d="M2060.2,1420.4c0,0-66.5,33.1-76.4,39.5c0,0,0,0-0.1,0c-13.8,7.2-27,11.3-39.1,13.3
	c-0.6-10.4-1.3-21.5-2-32.7c1.2,0.1,2.5,0.1,3.7,0c15.7-1.5,34.8-18.1,34.8-18.1c14.4,10.3,107.2-37.8,66.2-51.3
	c-41-13.5-69.9,16.3-83,32.2c-8.7,10.5-15.6,14-19.4,15.2c-1.9,0.6-3,0.6-3,0.6s-0.3,0.2-0.7,0.7c0-0.4,0-0.9-0.1-1.3
	c-0.9-12.8-1.7-25.6-2.5-38v-115.4c28.6-6.8,51.3,6.3,51.3,6.3c30.5,20.2,80.5,92.4,80.5,92.4
	C2100.9,1395.2,2060.2,1420.4,2060.2,1420.4z"/>
<path d="M1981.1,1422.4c0,0-19.1,16.6-34.8,18.1c-1.3,0.1-2.5,0.1-3.7,0c0.7,11.2,1.4,22.2,2,32.7c-2,0.3-4,0.6-5.9,0.8v-93.4
	c0.8,12.4,1.7,25.2,2.5,38c0,0.4,0,0.9,0.1,1.3c0.4-0.4,0.7-0.7,0.7-0.7s1,0,3-0.6c3.8-1.2,10.7-4.7,19.4-15.2
	c13.1-15.9,41.9-45.7,83-32.2C2088.3,1384.7,1995.5,1432.7,1981.1,1422.4z"/>
<line fill="none" stroke="#000000" stroke-width="2" stroke-miterlimit="10" x1="1938.6" y1="1265.1" x2="1938.6" y2="1261.6"/>
<polyline fill="none" stroke="#000000" stroke-width="2" stroke-miterlimit="10" points="1938.6,1492.5 1938.6,1477.7 1938.6,1474 
	"/>
<path d="M2132.3,1638.4c-4.4,5.5-16.9,18.6-33.3,12.6c0,0-10.3-1-17.2-13.5c0,0-29,19.6-49-12.1c0,0-19.1,21.9-45.7-5.1
	c0,0-7.9,13.5-21.9,11.2c-14-2.3-18.7-6.5-21.4-13.5c0,0-1.9,2.5-5.1,5.1v-11.5c2.1-1.3,4.2-3.4,6.5-6.2c0,0,8.8,16.3,22.9,13.1
	c14-3.2,17.2-17.2,17.2-17.2s3.7,17.7,28.9,21c0,0,14,0.5,18.7-16.3c0,0,10.3,26.1,33.6,27.5c0,0,14.9-10.4,14.9-26.3
	c0,0,5.1,36.6,26.1,29.5c0,0,7.1-1.9,10.7-4.8h0c7.5,3.6,12,5.4,12,5.4S2131.1,1637.5,2132.3,1638.4z"/>
<path d="M1997.1,1573.7c0,0,9.3-11.2,51.6,18c28,19.4,54.7,33,69.4,40h0c0.4-0.4,0.8-0.8,1.1-1.2c-15.4-8.6-41.4-24.2-68.6-46
	c-43.1-34.6-52.6-21.3-52.6-21.3c-24.7-27.2-43.7-1.5-43.7-1.5c-5.5-4.4-10.8-7-15.7-8.4v12c4.9,1.2,10.1,3.4,15.6,7.2
	C1954.2,1572.5,1975,1550.4,1997.1,1573.7z"/>
<path fill="#271D18" d="M2009.5,277.9c-1.5,1.3-49.9,45.2-54.5,164c0-2.9-0.2-63.7-16.3-119.6v-46.8c12.1,14.3,22.1,36.9,20.1,72.3
	C1958.7,347.7,1976.4,287.6,2009.5,277.9z"/>
<path fill="#33261E" d="M1848.4,1207.4c0,0,3.1-39.2-40.4-51c-43.5-11.8-170.4-11.2-170.4-11.2s-90.8-0.6-115.1,50.4
	c0,0,37.3-48.5,168.5-31.7c131.2,16.8,139.3,32.3,139.3,32.3s21.1,4.4-9.3,42.9c-30.5,38.6-81.2,71.5-120.3,112.6
	c-39.2,41-202.4,204.6-166.4,355.1c0,0-32.3-131.8,180.4-338.3C1714.7,1368.5,1851.5,1257.8,1848.4,1207.4z"/>
<g>
	<path fill="#271D18" d="M2215.1,1496.6c-21.2-15.1-90.9-53.2-222.4-21.7C1992.7,1474.8,2096.7,1405.5,2215.1,1496.6z"/>
	<path fill="#271D18" d="M2222.1,1502.1c-2.3-1.8-4.6-3.7-6.8-5.4C2219.3,1499.6,2221.6,1501.6,2222.1,1502.1z"/>
	<path fill="#271D18" d="M2228.9,2250.7c1.1,12.7,2.1,21.6,2.4,24.6C2230.2,2267.2,2229.4,2258.9,2228.9,2250.7z"/>
	<path fill="#271D18" d="M2327.3,1810.7c0,0-2.5,88.3-47.9,206.5c0,0-56,123.3-50.4,233.4c-3.7-44.1-8.1-134.9,10.7-194.3
		c25.5-80.9,65.9-128.7,64-223.9c-1.9-95.2-49.7-218.9-159.8-307.2c0,0-70.3-59.7-164.2-19.3l-2.5-8.7c0,0,61.8-38.4,128.9-10.4
		c67.2,28,149.7,86.9,197.6,249.2c0,0-3.1-101.8-47.4-150.8C2258.5,1587.4,2334.7,1661.2,2327.3,1810.7z"/>
	<path fill="#271D18" d="M2197.4,1608.9c-3-2.9-107.5-105.5-222.9-87.1c0,0,56-31.7,128.7,13.5
		C2173.7,1579.1,2196.1,1607.2,2197.4,1608.9z"/>
	<path fill="#271D18" d="M2366.5,2237.9c-60.6-110.5,30.3-194.9,34.7-198.8C2327.9,2129.6,2365.2,2234.5,2366.5,2237.9z"/>
	<path fill="#271D18" d="M2574.3,1806.2c2.7-3.4,50.6-65.2,38.5-130.5c0,0-7.2,75.1-75.9,154.2c-68.5,78.9-116.9,117.7-111.9,151.8
		c0,0-20-29,70.3-125.6c53.5-57.2,144.9-207.7,84-337C2581.5,1522.3,2691.1,1683.1,2574.3,1806.2z"/>
	<path fill="#271D18" d="M2253.9,1099.2l-98.2,4.4c0,0-86.4-6.9-135.6,76.4c0.9-2.5,29.4-84.5,121.9-83.3
		C2235.9,1098,2253.9,1099.2,2253.9,1099.2z"/>
	<path fill="#271D18" d="M2160.6,1070.8c0,0-106.3,8.8-144.6,82.1C2016,1152.9,2019.8,1069.3,2160.6,1070.8z"/>
	<path fill="#271D18" d="M2192.6,1049c-27.1-3.5-116.4-9-184.5,56.7C2009.2,1103.6,2048.8,1027.7,2192.6,1049z"/>
	<path fill="#271D18" d="M2194.7,1049.3c2.3,0.3,3.9,0.6,4.9,0.8C2198,1049.8,2196.3,1049.5,2194.7,1049.3z"/>
	<path fill="#271D18" d="M2512.9,1344.1c22.6,28.3,54.8,78.1,61.9,139c0,0-36.5-113.8-134.3-190.8c-25-15.7-52.4-30.7-82.1-43.8
		c5.3,1.6,173.6,54.2,244.3,181.9C2602.8,1430.4,2570.3,1390.4,2512.9,1344.1z"/>
	<path fill="#271D18" d="M2239.4,1314.8c-72.7-10.7-122.5-62.2-124-63.8C2205.5,1307,2235.4,1314,2239.4,1314.8z"/>
	<path fill="#271D18" d="M2259.9,1419.2c-29.9-78-192.5-177.7-197.6-180.8C2239.1,1325.8,2259.2,1415.9,2259.9,1419.2z"/>
	<path fill="#271D18" d="M2527.1,824.3c-111.9-67.8-136.8-18.7-190.3,17.4c-53.5,36.1-72.1,34.8-72.1,34.8
		c35.4-20.5,74.6-64,74.6-64C2422,725.4,2527.1,824.3,2527.1,824.3z"/>
	<path fill="#271D18" d="M2588.5,938.4c-4.9-8.2-97-160.5-215.6-106C2372.9,832.4,2489.7,735.5,2588.5,938.4z"/>
	<path fill="#271D18" d="M2522.1,713.6c-105.1-57.2-121.3-64.7-240.1-51c-117.8,13.6-255.3,241.4-257.4,245
		c44.1-100.8,116.3-181.6,116.3-181.6C2291.4,527.6,2522.1,713.6,2522.1,713.6z"/>
	<path fill="#271D18" d="M2469.9,510.8c-292-163.3-485.4,254.2-492.9,270.7C2182.4,274.8,2465.6,507.3,2469.9,510.8z"/>
	<path fill="#271D18" d="M2346.1,375.3c-248.8-89.9-352.7,148.3-358,160.9c35.5-92.6,81.9-144.1,129.4-170.9
		c-91.6,23.1-140.3,98-143.4,103c50.9-99.5,132.5-116.8,177.2-118.1C2250,316.9,2343.8,373.9,2346.1,375.3z"/>
	<path fill="#271D18" d="M2052.4,1240.4c30.5,38.6,81.2,71.5,120.3,112.6c39.1,41,201.9,204.1,166.5,354.4
		c2.2-10.9,22.9-140.2-180.5-337.6c0,0-136.8-110.7-133.7-161.1c0,0-3.1-39.2,40.4-51c43.5-11.8,170.4-11.2,170.4-11.2
		s90.6-0.6,115,50.3c-2-2.4-40.7-47.9-168.5-31.6c-0.1,0-0.1,0-0.2,0c-9,1.1-17.4,2.3-25.2,3.4c-7.2,1-14,2.1-20.3,3.1
		c-12.4,2-23.2,4-32.6,5.8c-8.7,1.8-16.1,3.4-22.5,5c-35.3,8.8-38.5,15-38.5,15s-1.6,0.3-3.2,1.6
		C2035.4,1202.4,2030.2,1212.3,2052.4,1240.4z"/>
</g>
</svg>
