<?xml version="1.0" encoding="utf-8"?>
<!-- Generator: Adobe Illustrator 18.1.0, SVG Export Plug-In . SVG Version: 6.00 Build 0)  -->
<svg version="1.1" id="Layer_1" xmlns="http://www.w3.org/2000/svg" xmlns:xlink="http://www.w3.org/1999/xlink" x="0px" y="0px"
	 viewBox="0 0 2528.5 735.3" enable-background="new 0 0 2528.5 735.3" xml:space="preserve">
<path fill="none" stroke="#FFFFFF" stroke-width="20" stroke-linecap="round" stroke-linejoin="round" stroke-miterlimit="10" d="
	M287.1,89.8H35.5V259h62.9v407.8h193.1V430.4l119.3,227.8l128-232.1v236.4h184.4V259h43.4v401.3h728.9V452.1l169.2,208.2H1849V265.5
	h43.4l-2.2,189.3c0,0-4.9,229.4,296.1,214.8c0,0,240.7,17.3,268.4-196.9V95.2h-183.8v361.2c0,0-9.8,89.5-100.9,83
	c-91.1-6.5-96-81.3-96-81.3V92h-405.1v211.5L1493.2,90.3H1311v401.9H951.5v-65.1h192v-97.6H956.3v-68.3h304.2V93.6H541.5
	L417.8,332.8L287.1,89.8z"/>
</svg>
