<?xml version="1.0" encoding="utf-8"?>
<!-- Generator: Adobe Illustrator 18.1.0, SVG Export Plug-In . SVG Version: 6.00 Build 0)  -->
<svg version="1.1" id="Layer_1" xmlns="http://www.w3.org/2000/svg" xmlns:xlink="http://www.w3.org/1999/xlink" x="0px" y="0px"
	 viewBox="0 0 287 518" enable-background="new 0 0 287 518" xml:space="preserve">
<g>
	<g>
		<path fill="#F8951D" d="M222.5,410.7c0,0-13.6,40.5,25.3,100.9c0,0,37.6-40.4,28-102.2L222.5,410.7z"/>
		<path fill="#F7B21E" d="M230.3,409.1c0,0-9.9,31.8,18.3,79.1c0,0,27.3-31.7,20.4-80.2L230.3,409.1z"/>
		<path fill="#FADB77" d="M235.8,410.5c0,0-7.1,21.8,13.2,54.2c0,0,19.7-21.7,14.7-54.9L235.8,410.5z"/>
		<path fill="#F3A34A" d="M11.2,409.3c0,0-13.6,40.5,25.3,100.9c0,0,37.6-40.4,28-102.2L11.2,409.3z"/>
		<path fill="#FBBD4C" d="M19,407.7c0,0-9.9,31.8,18.3,79.1c0,0,27.3-31.7,20.4-80.2L19,407.7z"/>
		<path fill="#F4DA90" d="M24.5,409c0,0-7.1,21.8,13.2,54.2c0,0,19.7-21.7,14.7-54.9L24.5,409z"/>
	</g>
	<g>
		
			<rect x="9.9" y="254.8" transform="matrix(3.238986e-03 -1 1 3.238986e-03 -228.9779 317.2018)" fill="#EAEAEA" width="69.4" height="37.4"/>
		
			<rect x="25.5" y="241.9" transform="matrix(1 3.238955e-03 -3.238955e-03 1 0.8757 -9.687250e-02)" fill="#2884B8" width="9.7" height="56.9"/>
		
			<rect x="212.3" y="254.3" transform="matrix(3.238986e-03 -1 1 3.238986e-03 -22.5435 517.7718)" fill="#DEDDDD" width="72.2" height="31.7"/>
		
			<rect x="254.8" y="237.7" transform="matrix(1 3.238955e-03 -3.238955e-03 1 0.8757 -0.8394)" fill="#0566A2" width="9.7" height="64.4"/>
		<path fill="#D6D6D6" d="M275.9,144.7l-0.3,83.5c0,6.2-5.1,11.3-11.3,11.3l-26.9-0.1l0.3-106.2l26.9,0.1
			C270.9,133.3,275.9,138.4,275.9,144.7z"/>
		<polygon fill="#DEDDDD" points="265.7,341.1 280.8,412.6 217.7,412.4 236.9,338.5 		"/>
		<path fill="#D6D6D6" d="M275.4,310.8l-0.1,30.5c0,4.8-3.1,9-7.3,10.6c-1.2,0.5-2.6,0.7-4,0.7l-29-0.1c-0.5,0-1.1,0-1.6-0.1
			c-3.2-0.5-5.9-2.2-7.6-4.7c-1.3-1.8-2-4.1-2-6.5l0.1-30.5c0-5.4,3.8-9.8,8.8-11c0.2-0.1,0.5-0.1,0.7-0.1c0.6-0.1,1.2-0.2,1.9-0.2
			l29,0.1c0,0,0.1,0,0.1,0C270.4,299.5,275.4,304.6,275.4,310.8z"/>
		
			<rect x="245.9" y="315.7" transform="matrix(1 3.238955e-03 -3.238955e-03 1 1.0433 -0.8198)" fill="#0566A2" width="15.4" height="11.9"/>
		<polygon fill="#EAEAEA" points="237.1,331.2 237.5,212.8 201.9,212.1 199.7,344.7 		"/>
		<path fill="#E3E3E6" d="M16.9,147l-0.3,83.5c0,6.2,5,11.3,11.3,11.3l26.9,0.1l0.3-106.2l-26.9-0.1C22,135.7,17,140.7,16.9,147z"/>
		<polygon fill="#EAEAEA" points="54.5,340.4 69.6,411.9 6.5,411.7 25.7,337.8 		"/>
		<path fill="#E3E3E6" d="M68.1,310.1L68,340.6c0,3-1.2,5.7-3.1,7.7c-2,2.1-4.8,3.5-7.9,3.5c-0.1,0-0.2,0-0.3,0l-29-0.1
			c-1.9,0-3.6-0.5-5.2-1.3c-3.6-1.9-6.1-5.7-6.1-10.1l0.1-30.5c0-5.6,4.1-10.2,9.5-11.1c0.6-0.1,1.2-0.2,1.9-0.2l29,0.1
			c2,0,3.8,0.5,5.4,1.4c0.4,0.2,0.7,0.4,1,0.6C66.2,302.9,68.1,306.3,68.1,310.1z"/>
		
			<rect x="30.2" y="315" transform="matrix(1 3.238955e-03 -3.238955e-03 1 1.0399 -0.1192)" fill="#2884B8" width="14.3" height="11.9"/>
		<path fill="#F4F4F4" stroke="#F4F4F4" stroke-miterlimit="10" d="M99,128.4l48.9,0.2l0-7.4c-52-0.1-91.6,6.5-92.6,6.7l0,0
			c0,0.2,0,0.3,0,0.3l-0.4,110.7l8.5,0l0.3-95.2c0-6.1,5-11,11-11c3,0,5.8,1.2,7.8,3.2c2,2,3.2,4.8,3.2,7.8l-0.4,124
			c0,6.1-5,11-11,11c-3,0-5.8-1.2-7.8-3.2c-2-2-3.2-4.8-3.2-7.8l-0.1,21c1.8-3.8,5.6-6.4,10-6.4c3.1,0,5.8,1.3,7.8,3.3
			c2,2,3.2,4.8,3.2,7.8l-0.1,22.7c0,6.1-5,11-11.1,11c-1.9,0-3.6-0.5-5.1-1.3l0,7.5c1.2,0.2,2.4,0.4,3.8,0.7
			c5.9,1,13.1,2.1,21.4,3.1c11.2,1.3,24.4,2.5,39,3.1c4.8,0.2,9.8,0.3,14.9,0.3l0-15.1c-0.1,0-0.2,0-0.3,0
			c-9.6,0-17.4-7.8-17.3-17.4s7.8-17.3,17.4-17.3c0.1,0,0.2,0,0.3,0l0-11.6l-9.2,0c-6.6,0-11.9-5.1-11.9-11.3l0.2-67.2
			c0-6.2,5.4-11.3,12-11.3l9.2,0l0-14.8l-48.4-0.2c-2.1,0-3.8-1.7-3.8-3.8c0-1,0.4-2,1.1-2.7c0.7-0.7,1.6-1.1,2.7-1.1l48.4,0.2
			l0-12.6l-48.4-0.2c-2.1,0-3.8-1.7-3.8-3.8c0-1,0.4-2,1.1-2.7c0.7-0.7,1.6-1.1,2.7-1.1l48.4,0.2l0-10.7l-48.9-0.2
			c-2.1,0-3.8-1.7-3.8-3.8c0-1,0.4-2,1.1-2.7C97,128.8,97.9,128.4,99,128.4z M122.2,317.7c0,5.8-5.1,10.5-11.3,10.5l-6.4,0
			c-6.2,0-11.3-4.7-11.3-10.5l0-2.6c0-5.8,5.1-10.5,11.3-10.5l6.4,0c6.2,0,11.3,4.7,11.3,10.5L122.2,317.7z M96.9,192.1
			c0-3.9,4.9-7.1,11-7c3,0,5.8,0.8,7.8,2.1c2,1.3,3.2,3.1,3.2,5l-0.3,79.8c0,3.9-4.9,7.1-11,7c-3,0-5.8-0.8-7.8-2.1
			c-2-1.3-3.2-3.1-3.2-5L96.9,192.1z M95.2,285.2c1.1-1.1,2.7-1.9,4.5-1.8l16.3,0.1c3.5,0,6.3,2.9,6.3,6.4c0,3.5-2.9,6.3-6.4,6.3
			l-16.3-0.1c-3.5,0-6.3-2.9-6.3-6.4C93.3,288,94.1,286.4,95.2,285.2z"/>
		<path fill="#EAEAEA" stroke="#EAEAEA" stroke-miterlimit="10" d="M237.6,121.7c0.2,4.5,0.1,7.2,0.1,7.2
			c-30.9-5.8-62.2-7.7-89.9-7.7l0,7.4l45.4,0.1c2.1,0,3.8,1.7,3.8,3.8c0,2.1-1.7,3.8-3.8,3.8l-45.4-0.1l0,10.7l45.8,0.1
			c2.1,0,3.8,1.7,3.8,3.8c0,2.1-1.7,3.8-3.8,3.8l-45.8-0.1l0,12.6l45.8,0.1c2.1,0,3.8,1.7,3.8,3.8c0,2.1-1.7,3.8-3.8,3.8l-45.8-0.1
			l0,14.8l6,0c6.6,0,11.9,5.1,11.9,11.3l-0.2,67.2c0,6.2-5.4,11.3-12,11.3l-6,0l0,11.6c9.5,0.2,17,7.9,17,17.4
			c0,9.5-7.7,17.2-17.1,17.3l0,15.1c2.1,0,4.3,0,6.4,0c6.7-0.1,13.6-0.3,20.7-0.7c13.5-0.7,27.5-2.2,41.8-4.5
			c2.5-0.4,5.1-0.9,7.6-1.3l0-13.1c-0.9,0.2-1.9,0.4-2.9,0.4c-7.5,0-13.5-7-13.5-15.5c0-8.5,6.1-15.4,13.6-15.4
			c5,0,9.3,3.1,11.6,7.6l0.2-64l4.7,0l0.3-104.9C237.8,129.1,237.9,126.4,237.6,121.7z M174.8,192.4c0-3.9,4.9-7.1,11-7
			c3,0,5.8,0.8,7.8,2.1c2,1.3,3.2,3.1,3.2,5l-0.3,79.8c0,3.9-4.9,7.1-11,7c-3,0-5.8-0.8-7.8-2.1c-2-1.3-3.2-3.1-3.2-5L174.8,192.4z
			 M199.8,318c0,5.8-5.1,10.5-11.3,10.5l-6.4,0c-6.2,0-11.3-4.7-11.3-10.5l0-2.6c0-5.8,5.1-10.5,11.3-10.5l6.4,0
			c6.2,0,11.3,4.7,11.3,10.5L199.8,318z M193.6,295.5l-14.8,0c-3.5,0-6.3-2.9-6.3-6.4c0-1.8,0.7-3.3,1.9-4.5
			c1.2-1.1,2.7-1.9,4.5-1.8l14.8,0c3.5,0,6.3,2.9,6.3,6.4C200,292.6,197.2,295.5,193.6,295.5z M229.1,268.2c0,6.1-5,11-11,11
			c-3,0-5.8-1.2-7.8-3.2c-2-2-3.2-4.8-3.2-7.8l0.4-124c0-6.1,5-11,11-11c3,0,5.8,1.2,7.8,3.2c2,2,3.2,4.8,3.2,7.8L229.1,268.2z"/>
		<path fill="#B3B4B5" d="M237.8,128.8c-30.9-5.8-62.2-7.7-89.9-7.7l0-10.1c47,1.2,89.4,4.9,89.4,4.9c0.1,1.6,0.2,3,0.3,4.4
			c0,0.5,0,0.9,0.1,1.4l0,0C237.8,126.2,237.8,128.8,237.8,128.8z"/>
		<path fill="#B3B4B5" d="M148.2,11.9l0,6.7l19.6,0.1c0,0,8.3,11.8,7.4,44L148,62.6l0,5.1c1-0.3,2.1-0.5,3.3-0.5l18.8,0.1
			c6.2,0,11.3,5.1,11.3,11.3l0,5.7c0,6.2-5.1,11.3-11.3,11.3l-18.8-0.1c-1.1,0-2.2-0.2-3.3-0.5l0,7c31.7-0.1,65.2,1.3,88.7,6.3
			C232.6,74.5,216.1,11.1,148.2,11.9z M182.7,62.1l13.2,0c0,0,9.4,20,10.3,36.1l-18.8-2.5C187.3,95.7,187.7,72.1,182.7,62.1z"/>
		<path fill="#FFFFFF" stroke="#000000" stroke-width="2.2554" stroke-miterlimit="10" d="M171.2,55c0,2-1.6,3.6-3.6,3.6
			c-2,0-3.6-1.6-3.6-3.6c0-2,1.6-3.6,3.6-3.6C169.6,51.4,171.2,53,171.2,55z"/>
		<path fill="#FFFFFF" stroke="#000000" stroke-width="2.2554" stroke-miterlimit="10" d="M130.1,54.8c0,2-1.6,3.6-3.6,3.6
			c-2,0-3.6-1.6-3.6-3.6c0-2,1.6-3.6,3.6-3.6C128.5,51.2,130.1,52.9,130.1,54.8z"/>
		<path fill="#FFFFFF" stroke="#000000" stroke-width="2.2554" stroke-miterlimit="10" d="M136.5,76.6l0,9.5c0,5.2-4.2,9.4-9.5,9.4
			c-2.6,0-5-1.1-6.7-2.8c-1.7-1.7-2.7-4.1-2.7-6.7l0-9.5c0-5.2,4.2-9.4,9.5-9.4c2.6,0,5,1.1,6.7,2.8C135.5,71.7,136.5,74,136.5,76.6
			z"/>
		<path fill="#D1D2D1" d="M148.2,18.6l0-6.7c-1.1,0-2.2,0-3.3,0.1c-67.8,2.8-84.4,61-88.5,93.9c-0.4,3-0.6,5.9-0.8,8.4
			c-0.5,7.2-0.4,12.2-0.4,13.4c1-0.2,40.6-6.7,92.6-6.7l0.1-26c-4.6-1.4-8-5.7-8-10.8l0-5.7c0-5.1,3.4-9.4,8.1-10.8l0-5.1l-31.6-0.1
			c0,0,1.1-33.9,7.4-43.9L148.2,18.6z M93.2,64.3l17,0.1l2.1,32.3l-24.8-0.1C87.4,96.6,88.5,73.8,93.2,64.3z M117.7,76.6
			c0-5.2,4.2-9.4,9.5-9.4c2.6,0,5,1.1,6.7,2.8c1.7,1.7,2.7,4.1,2.7,6.7l0,9.5c0,5.2-4.2,9.4-9.5,9.4c-2.6,0-5-1.1-6.7-2.8
			c-1.7-1.7-2.7-4.1-2.7-6.7L117.7,76.6z"/>
		<path fill="#FFFFFF" d="M118.8,192.2l-0.3,79.8c0,3.9-4.9,7.1-11,7c-3,0-5.8-0.8-7.8-2.1c-2-1.3-3.2-3.1-3.2-5l0.3-79.8
			c0-3.9,4.9-7.1,11-7c3,0,5.8,0.8,7.8,2.1C117.6,188.5,118.9,190.2,118.8,192.2z"/>
		<path fill="#F4F4F4" d="M196.7,192.4l-0.3,79.8c0,3.9-4.9,7.1-11,7c-3,0-5.8-0.8-7.8-2.1c-2-1.3-3.2-3.1-3.2-5l0.3-79.8
			c0-3.9,4.9-7.1,11-7c3,0,5.8,0.8,7.8,2.1C195.5,188.7,196.7,190.5,196.7,192.4z"/>
		<path fill="#F4F4F4" d="M229.5,144.2l-0.4,124c0,6.1-5,11-11,11c-3,0-5.8-1.2-7.8-3.2c-2-2-3.2-4.8-3.2-7.8l0.4-124
			c0-6.1,5-11,11-11c3,0,5.8,1.2,7.8,3.2C228.3,138.4,229.6,141.2,229.5,144.2z"/>
		<path fill="#0566A2" d="M196.9,132.5c0,2.1-1.7,3.8-3.8,3.8l-45.4-0.1l0-7.5l45.4,0.1C195.2,128.7,196.9,130.4,196.9,132.5z"/>
		<path fill="#2884B8" d="M147.8,128.5l0,7.5l-48.9-0.2c-2.1,0-3.8-1.7-3.8-3.8c0-1,0.4-2,1.1-2.7c0.7-0.7,1.6-1.1,2.7-1.1
			L147.8,128.5z"/>
		<path fill="#2884B8" d="M147.8,146.8l0,7.5l-48.4-0.2c-2.1,0-3.8-1.7-3.8-3.8c0-1,0.4-2,1.1-2.7c0.7-0.7,1.6-1.1,2.7-1.1
			L147.8,146.8z"/>
		<path fill="#0566A2" d="M197.3,150.7c0,2.1-1.7,3.8-3.8,3.8l-45.8-0.1l0-7.5l45.8,0.1C195.6,146.9,197.3,148.6,197.3,150.7z"/>
		<path fill="#0566A2" d="M197.2,170.8c0,2.1-1.7,3.8-3.8,3.8l-45.8-0.1l0-7.5l45.8,0.1C195.6,167,197.2,168.7,197.2,170.8z"/>
		<path fill="#2884B8" d="M147.7,166.9l0,7.5l-48.4-0.2c-2.1,0-3.8-1.7-3.8-3.8c0-1,0.4-2,1.1-2.7c0.7-0.7,1.6-1.1,2.7-1.1
			L147.7,166.9z"/>
		<path fill="#0566A2" d="M237.3,115.9c0,0-42.4-3.7-89.4-4.9l0-8.9c31.7-0.1,65.2,1.3,88.7,6.3c0,0,0,0,0,0.1
			c0.2,1.7,0.4,3.4,0.5,5c0,0.3,0,0.5,0.1,0.8c0,0.3,0,0.5,0.1,0.8C237.2,115.3,237.3,115.6,237.3,115.9z"/>
		<path fill="#2884B8" d="M56.4,105.9c0.7-0.1,44.2-3.6,91.5-3.8l0,8.9c-32.8-0.8-67.8-0.4-92.2,3.3c0,0,0,0-0.1,0c0,0,0,0-0.1,0
			c0,0,0.1-1.2,0.3-2.8c0,0,0,0,0,0C56,109.8,56.2,107.7,56.4,105.9C56.4,105.9,56.4,105.9,56.4,105.9z"/>
		<path fill="#2884B8" d="M136.5,76.6l0,9.5c0,5.2-4.2,9.4-9.5,9.4c-2.6,0-5-1.1-6.7-2.8c-1.7-1.7-2.7-4.1-2.7-6.7l0-9.5
			c0-5.2,4.2-9.4,9.5-9.4c2.6,0,5,1.1,6.7,2.8C135.5,71.7,136.5,74,136.5,76.6z"/>
		<path fill="#2884B8" d="M148,67.7l-0.1,27.3c-4.6-1.4-8-5.7-8-10.8l0-5.7C140,73.4,143.4,69.1,148,67.7z"/>
		<path fill="#0566A2" d="M170.1,67.3l-18.8-0.1c-1.1,0-2.2,0.2-3.3,0.5l-0.1,27.3c1,0.3,2.1,0.5,3.3,0.5l18.8,0.1
			c6.2,0,11.3-5,11.3-11.3l0-5.7C181.4,72.4,176.4,67.3,170.1,67.3z M160.7,92.5c-5.9,0-10.6-4.8-10.6-10.6
			c0-5.8,4.8-10.6,10.6-10.6c5.8,0,10.6,4.8,10.6,10.6C171.3,87.8,166.6,92.5,160.7,92.5z"/>
		<path fill="#0566A2" d="M165.6,200.5l-0.2,67.2c0,6.2-5.4,11.3-12,11.3l-6,0l0-6.5l9.4,0l0.1-32.7l-9.4,0l0-7.3l9.6,0l0.1-33
			l-9.6,0l0-10.4l6,0C160.3,189.2,165.6,194.3,165.6,200.5z"/>
		<path fill="#2884B8" d="M147.6,189.2l-0.2,50.7l-12.3,0l-0.1,32.7l12.3,0l0,6.5l-9.2,0c-6.6,0-11.9-5.1-11.9-11.3l0.2-67.2
			c0-6.2,5.4-11.3,12-11.3L147.6,189.2z"/>
		<path fill="#FFFFFF" d="M122.3,289.8c0,3.5-2.9,6.3-6.4,6.3l-16.3-0.1c-3.5,0-6.3-2.9-6.3-6.4c0-1.8,0.7-3.3,1.9-4.5
			c1.1-1.1,2.7-1.9,4.5-1.8l16.3,0.1C119.5,283.4,122.3,286.3,122.3,289.8z"/>
		<path fill="#F4F4F4" d="M200,289.1c0,3.5-2.9,6.3-6.4,6.3l-14.8,0c-3.5,0-6.3-2.9-6.3-6.4c0-1.8,0.7-3.3,1.9-4.5
			c1.2-1.1,2.7-1.9,4.5-1.8l14.8,0C197.2,282.7,200,285.6,200,289.1z"/>
		<path fill="#FFFFFF" d="M122.2,315.1l0,2.6c0,5.8-5.1,10.5-11.3,10.5l-6.4,0c-6.2,0-11.3-4.7-11.3-10.5l0-2.6
			c0-5.8,5.1-10.5,11.3-10.5l6.4,0C117.2,304.6,122.2,309.3,122.2,315.1z"/>
		<path fill="#F4F4F4" d="M199.8,315.4l0,2.6c0,5.8-5.1,10.5-11.3,10.5l-6.4,0c-6.2,0-11.3-4.7-11.3-10.5l0-2.6
			c0-5.8,5.1-10.5,11.3-10.5l6.4,0C194.8,304.8,199.8,309.6,199.8,315.4z"/>
		<path fill="#0566A2" d="M164.3,308c0,9.5-7.7,17.2-17.1,17.3l0.1-34.7C156.7,290.8,164.3,298.5,164.3,308z"/>
		<path fill="#2884B8" d="M147.3,290.6l-0.1,34.7c-0.1,0-0.2,0-0.3,0c-9.6,0-17.4-7.8-17.3-17.4s7.8-17.3,17.4-17.3
			C147.1,290.6,147.2,290.6,147.3,290.6z"/>
		<path fill="#0566A2" d="M234.4,305.8c0,0.1,0,0.3,0,0.4c-0.2,7.2-4.7,13.1-10.6,14.6c-0.9,0.2-1.9,0.4-2.9,0.4
			c-7.5,0-13.5-7-13.5-15.5c0-8.5,6.1-15.4,13.6-15.4c5,0,9.3,3.1,11.6,7.6c0.3,0.5,0.5,1,0.7,1.5
			C233.9,301.4,234.4,303.6,234.4,305.8z"/>
		
			<rect x="124.8" y="209.8" transform="matrix(3.238986e-03 -1 1 3.238986e-03 -75.1283 356.6018)" fill="#FFFFFF" width="33" height="12.4"/>
		
			<rect x="124.9" y="250" transform="matrix(3.238986e-03 -1 1 3.238986e-03 -115.3256 396.5381)" fill="#FFFFFF" width="32.7" height="12.3"/>
		<path fill="#0566A2" d="M187.3,95.7c0,0,0.4-23.6-4.6-33.6l13.2,0c0,0,9.4,20,10.3,36.1L187.3,95.7z"/>
		<path fill="#2884B8" d="M112.2,96.7l-24.8-0.1c0,0,1-22.8,5.8-32.3l17,0.1L112.2,96.7z"/>
		<path fill="#FFFFFF" stroke="#000000" stroke-width="2.2554" stroke-miterlimit="10" d="M167.6,51.4c-2,0-3.6,1.6-3.6,3.6
			c0,2,1.6,3.6,3.6,3.6c2,0,3.6-1.6,3.6-3.6C171.2,53,169.6,51.4,167.6,51.4z M126.5,51.2c-2,0-3.6,1.6-3.6,3.6c0,2,1.6,3.6,3.6,3.6
			c2,0,3.6-1.6,3.6-3.6C130.1,52.9,128.5,51.2,126.5,51.2z"/>
		<path fill="#2884B8" d="M147.2,21.8c0.3,0,0.6,0,1,0l0-3.2l-24.4-0.1c-6.3,10-7.4,43.9-7.4,43.9l31.6,0.1l0-9.8c-0.3,0-0.6,0-1,0
			c-8.6,0-15.5-7-15.5-15.6C131.6,28.7,138.6,21.7,147.2,21.8z M126.5,58.4c-2,0-3.6-1.6-3.6-3.6c0-2,1.6-3.6,3.6-3.6
			c2,0,3.6,1.6,3.6,3.6C130.1,56.8,128.5,58.4,126.5,58.4z"/>
		<path fill="#303132" d="M148.2,21.8l-0.1,31c-0.3,0-0.6,0-1,0c-8.6,0-15.5-7-15.5-15.6c0-8.6,7-15.5,15.6-15.5
			C147.5,21.8,147.8,21.8,148.2,21.8z"/>
		<path fill="#303132" d="M130.1,54.8c0,2-1.6,3.6-3.6,3.6c-2,0-3.6-1.6-3.6-3.6c0-2,1.6-3.6,3.6-3.6
			C128.5,51.2,130.1,52.9,130.1,54.8z"/>
		<path fill="#0C0C0C" d="M171.2,55c0,2-1.6,3.6-3.6,3.6c-2,0-3.6-1.6-3.6-3.6c0-2,1.6-3.6,3.6-3.6C169.6,51.4,171.2,53,171.2,55z"
			/>
		<path fill="#C72030" d="M171.3,81.9c0,5.9-4.8,10.6-10.6,10.6c-5.9,0-10.6-4.8-10.6-10.6c0-5.8,4.8-10.6,10.6-10.6
			C166.6,71.3,171.4,76.1,171.3,81.9z"/>
		
			<rect x="135.8" y="211.2" transform="matrix(3.238986e-03 -1 1 3.238986e-03 -64.2095 367.6272)" fill="#F4F4F4" width="33" height="9.6"/>
		
			<rect x="135.8" y="251.5" transform="matrix(3.238986e-03 -1 1 3.238986e-03 -104.5607 407.4081)" fill="#F4F4F4" width="32.7" height="9.4"/>
		<path fill="#0C0C0C" d="M162.7,37.4c0,8.3-6.5,15-14.6,15.5l0.1-31C156.3,22.3,162.7,29.1,162.7,37.4z"/>
		<path fill="#0566A2" d="M167.8,18.7l-19.6-0.1l0,3.2c8.1,0.5,14.6,7.3,14.5,15.6c0,8.3-6.5,15-14.6,15.5l0,9.8l27.1,0.1
			C176.1,30.5,167.8,18.7,167.8,18.7z M167.6,58.6c-2,0-3.6-1.6-3.6-3.6c0-2,1.6-3.6,3.6-3.6c2,0,3.6,1.6,3.6,3.6
			C171.2,57,169.6,58.6,167.6,58.6z"/>
		<path fill="#B3B4B5" d="M237.1,331.2c-0.1,0.1-0.1,0.2-0.2,0.4c-3.3,6.5-7.5,12-11.3,16.1c-5.1,5.5-9.4,8.7-9.4,8.7
			c-0.1,0-0.2,0-0.3,0l0.1-21.1c2.5-0.4,5.1-0.9,7.6-1.3C228.1,333.1,232.6,332.2,237.1,331.2z"/>
		<path fill="#B3B4B5" d="M216.1,335.3l-0.1,21.1c0,0,0,0,0,0c-7,0.9-14.1,1.6-21.3,2.1l0.1-20.4
			C201.7,337.4,208.9,336.4,216.1,335.3C216.1,335.3,216.1,335.3,216.1,335.3z"/>
		<path fill="#B3B4B5" d="M194.7,338.1l-0.1,20.4l0,0c-6.8,0.5-13.6,0.9-20.4,1.1c-1.8,0.1-3.5,0.1-5.2,0.2L169,340
			c1.7-0.1,3.5-0.2,5.2-0.3C181,339.4,187.8,338.8,194.7,338.1z"/>
		<path fill="#B3B4B5" d="M169,340l-0.1,19.7c-5.2,0.1-10.4,0.2-15.5,0.2c-2.2,0-4.3,0-6.4,0l0.1-19.5c2.1,0,4.3,0,6.4,0
			C158.6,340.4,163.8,340.2,169,340z"/>
		<path fill="#D1D2D1" d="M147.1,340.4l-0.1,19.5c-5.1,0-10.1-0.1-14.9-0.3c-3.7-0.1-7.2-0.2-10.7-0.4l0.1-19.8
			c3.5,0.2,7,0.4,10.7,0.5C137,340.3,142,340.4,147.1,340.4z"/>
		<path fill="#D1D2D1" d="M121.5,339.6l-0.1,19.8c-3-0.1-5.9-0.3-8.8-0.4c-6.3-0.3-12.1-0.7-17.2-1l0.1-20.6
			C103.3,338.2,112.1,339,121.5,339.6z"/>
		<polygon fill="#F4F4F4" points="54.8,332.9 55.2,214.5 90.8,214.1 92.1,346.7 		"/>
		<path fill="#2884B8" d="M84.3,293.4l-0.1,22.7c0,6.1-5,11-11.1,11c-1.9,0-3.6-0.5-5.1-1.3c-1-0.5-1.9-1.2-2.6-2
			c-2-2-3.2-4.8-3.2-7.8l0.1-22.7c0-1.7,0.4-3.2,1-4.6c1.8-3.8,5.6-6.4,10-6.4c3.1,0,5.8,1.3,7.8,3.3
			C83.1,287.6,84.3,290.4,84.3,293.4z"/>
		<path fill="#D1D2D1" d="M71.8,334l-0.1,21.9c0,0,0,0,0,0c-2.7-2.6-4.9-5.1-6.8-7.5c-7.3-9-9.7-16-10.2-17.5c0-0.1,0-0.2-0.1-0.2
			c0-0.1,0-0.1,0-0.1s0,0,0,0c0.4,0.1,5.2,1.2,13.4,2.7C69.2,333.5,70.4,333.7,71.8,334L71.8,334z"/>
		<path fill="#D1D2D1" d="M95.5,337.3l-0.1,20.6c-0.8-0.1-1.6-0.1-2.3-0.2c-12.9-0.9-21-1.8-21.4-1.9l0.1-21.9
			c5.9,1,13.1,2.1,21.4,3.1C93.9,337.1,94.7,337.2,95.5,337.3z"/>
		<path fill="#FFFFFF" d="M85.7,143.7l-0.4,124c0,6.1-5,11-11,11c-3,0-5.8-1.2-7.8-3.2c-2-2-3.2-4.8-3.2-7.8l0.4-124
			c0-6.1,5-11,11-11c3,0,5.8,1.2,7.8,3.2C84.5,137.9,85.7,140.7,85.7,143.7z"/>
	</g>
</g>
</svg>
