<?xml version="1.0" encoding="utf-8"?>
<!-- Generator: Adobe Illustrator 18.1.0, SVG Export Plug-In . SVG Version: 6.00 Build 0)  -->
<svg version="1.1" id="Layer_1" xmlns="http://www.w3.org/2000/svg" xmlns:xlink="http://www.w3.org/1999/xlink" x="0px" y="0px"
	 viewBox="0 0 1721.9 1261.3" enable-background="new 0 0 1721.9 1261.3" xml:space="preserve">
<path fill="#7C7641" stroke="#7C7641" stroke-miterlimit="10" d="M852.6,576.7V142.4c-107.8-3.9-181.4,35.4-181.4,35.4
	C501.6,268.9,482,442.6,482,442.6c-114.9-25.9-194.8,7.7-206,10.5c-11.2,2.8-21.7,1.4-21.7,1.4c-173-7.7-196.1,12.6-196.1,12.6
	c-70,47.6-2.8,68.7-2.8,68.7s99.5,49.7,132.4,83.4c32.9,33.6,119.8,97.4,213,100.9c93.2,3.5,77.8,11.9,94.6,70.1
	c16.8,58.1,70.8,86.9,116.3,91.8c45.5,4.9,84.1,55.4,84.1,55.4c72.7,65.8,76.3,62.4,156.9,66.4v-150c-13.3-1-34.8-3.8-52.9-11.3
	c0,0-21.5-8.2-49.7,1.9c1-0.7,24.9-15.6,62.1-1.6c0,0,17.8,3.8,40.5,6v-13.8c-19.5-0.3-41.6-1.3-62.9-6.2
	c-26.6-6.1-43.4-3.5-59.5,4.2c0,0,17.2-17.4,69.2-9c-0.5-8.2-1.8-40.4,7.7-47.9c-0.9,1-6.7,9.5-3,48.7c1.9,0.3,3.8,0.7,5.8,1.1
	c0,0,1.9,0.2,5.2,0.5c0-6,0.3-23.3,3.7-33.9c0,0-2.7,26.4-1.3,34.1c8,0.7,21.2,1.5,35.1,1.3V710.2c-6,0.1-12.8-0.4-19.8-1.9
	c0,0-22.8,8.9-31.2-12.3c0,0,9.3,9.8,28.5,4.5c0,0,6,7.5,22.4,7v-86.4c-7.9-0.5-17.1,0.1-28.1,2.3c0,0,12.5-7.1,28.1-7.8v-34.8
	c-7.9-1.3-17.4-1.7-28.9-0.7C823.7,580.1,837.1,575.6,852.6,576.7z M648.3,593.9c0,0,13.6-3.6,32.8-0.1c0,0,2.8,0.7,6.9,1.8
	c0,0,0,0,0,0c4.2,1.1,8.2,2.4,12.1,3.9c0.3,0.1,0.7,0.3,1,0.4c5.7,2.1,11.6,4.7,16,7.7c0,0,0,0,0,0v0c7.4,4.2,14,9,19.5,13.4
	c0,0,0,0,0,0c12.4,10,19.5,18.8,19.5,18.8s-9,2.8-37.1,2.7c-10.2,0.1-22.9,0-38.2-1.1c-8.4-0.6-24.4-2.7-24.4-2.7c0,0,0,0,0,0
	c-44-5-68.9-13-68.9-13C608.7,606.6,629.3,597.2,648.3,593.9C648.3,594,648.3,593.9,648.3,593.9z M689.5,565.2
	c2.9-0.3,5.7-0.4,8.4-0.4c1.4,0,2.8,0,4.2,0.1c0.8,0.1,1.6,0.1,2.3,0.2c0.8,0.1,1.5,0.1,2.3,0.2c1.4,0.1,2.8,0.4,4.2,0.6
	c0.8,0.1,1.7,0.3,2.5,0.5c0.8,0.2,1.7,0.4,2.5,0.6c0.4,0.1,0.7,0.2,1.1,0.3c0.4,0.1,0.7,0.2,1.1,0.3c0.8,0.2,1.5,0.4,2.3,0.7
	c0.4,0.1,0.8,0.3,1.2,0.4c0.5,0.2,0.9,0.3,1.4,0.5c0.5,0.1,0.9,0.3,1.3,0.5c1.1,0.4,2.1,0.8,3.1,1.2c0.4,0.1,0.7,0.3,1.1,0.5
	c3,1.4,5.9,2.9,8.6,4.5c0.6,0.4,1.2,0.8,1.8,1.2c1.9,1.3,3.8,2.6,5.5,3.9c0.7,0.5,1.3,1,1.9,1.5c0.3,0.3,0.7,0.6,1,0.9
	c0.3,0.2,0.5,0.5,0.8,0.7c1.4,1.2,2.7,2.4,4,3.7c0.5,0.4,0.9,0.9,1.3,1.3c0.4,0.4,0.9,0.9,1.3,1.3c0.7,0.7,1.3,1.4,1.9,2.1
	c5,5.5,8.5,10.7,10.6,14.1c0.1,0.2,0.2,0.4,0.3,0.6c0.2,0.4,0.4,0.7,0.6,1.1c0.2,0.3,0.4,0.6,0.5,0.9c0.1,0.2,0.2,0.3,0.3,0.5
	c0.2,0.4,0.4,0.7,0.5,0.9c-0.3-0.9-0.6-1.8-0.9-2.6c-0.8-2.2-1.7-4.3-2.7-6.4c-0.3-0.6-0.6-1.2-0.9-1.8c-1.5-3-3.1-5.8-4.8-8.4
	c-0.3-0.5-0.7-1-1-1.5c-0.6-0.9-1.2-1.7-1.7-2.5c-0.3-0.4-0.6-0.8-0.9-1.2c-0.4-0.6-0.9-1.2-1.4-1.7c-0.5-0.6-1-1.2-1.6-1.8
	c-0.1-0.2-0.3-0.3-0.4-0.5c-0.2-0.3-0.5-0.5-0.7-0.8c-0.8-0.9-1.6-1.8-2.4-2.6c-0.3-0.3-0.6-0.6-0.9-0.9c-0.4-0.5-0.9-0.9-1.3-1.3
	c-0.5-0.5-1-0.9-1.6-1.4c-5-4.5-10.2-8-14.8-10.5c-0.7-0.4-1.4-0.8-2.1-1.1c-0.5-0.3-0.9-0.5-1.4-0.7c-0.4-0.2-0.9-0.4-1.3-0.7
	c-0.4-0.2-0.8-0.4-1.2-0.6c-2.2-1-4.2-1.8-5.8-2.4c-0.5-0.2-0.9-0.3-1.4-0.5c-0.3-0.1-0.5-0.2-0.7-0.2c-0.7-0.2-1.3-0.4-1.8-0.5
	c-0.3-0.1-0.5-0.1-0.7-0.2c-0.2-0.1-0.4-0.1-0.5-0.1c-0.3-0.1-0.4-0.1-0.5-0.1c-0.1,0-0.2,0-0.2,0c-76-14.4-80.2,0-120.8,27
	c-40.6,27-49.4,0.3-49.4,0.3c22.8,20.7,44.1-6.3,44.1-6.3c45.2-43.8,83.7-37.1,83.7-37.1c116.6,0.7,106.8,97.7,106.8,97.7
	C749.4,569.7,689.5,565.2,689.5,565.2z M524.6,543.4c0.8-3.5,28.7-119.1,165.7-110.3C690.3,433,565.6,440.1,524.6,543.4z
	 M708.8,351.6c62.9-79,128.7-19.9,128.7-19.9C762.4,292.7,714.2,345.3,708.8,351.6z M789.5,224.3c20.5,13.4,47,10.8,47,10.8
	c-24.7,8.9-51.2-3.4-51.2-3.4c-76.4-29.7-115,25.5-116.9,28.3C696.1,199.6,769,210.9,789.5,224.3z M667.2,280.4
	c-101.2,44.9-143,139.1-144.5,142.3C565.3,304,667.2,280.4,667.2,280.4z M676.6,339.3c-131.9,45-159.4,135.8-160.2,138.6
	C543.7,359.2,676.6,339.3,676.6,339.3z M590,662c-0.9-0.5-1.9-1-2.8-1.4c-0.5-0.2-1-0.4-1.5-0.7c-0.5-0.2-1-0.4-1.5-0.6
	c-1-0.4-2-0.8-3-1.2c-0.5-0.2-1-0.4-1.5-0.5c-0.8-0.3-1.7-0.5-2.5-0.8c-0.8-0.3-1.7-0.5-2.6-0.7c-1.2-0.3-2.4-0.6-3.6-0.9
	c-1.2-0.3-2.4-0.5-3.6-0.8c-1.2-0.2-2.5-0.4-3.7-0.6c-1.2-0.2-2.4-0.4-3.6-0.5c-0.5-0.1-0.9-0.1-1.4-0.2c-0.5,0-0.9-0.1-1.4-0.1
	c-0.9-0.1-1.8-0.2-2.7-0.3c-1.2-0.1-2.4-0.2-3.6-0.3c-1.2-0.1-2.4-0.1-3.6-0.2c-1.1,0-2.2-0.1-3.3-0.1c-3.5-0.1-6.9,0-9.9,0.1
	c-0.2,0-0.4,0-0.6,0c-0.2,0-0.4,0-0.6,0c-0.4,0-0.7,0-1,0c-0.1,0-0.2,0-0.3,0c-0.6,0-1.2,0.1-1.7,0.1c-0.7,0-1.4,0.1-2.1,0.1
	c-0.3,0-0.6,0-0.8,0.1c-0.4,0-0.8,0-1.2,0.1c-0.4,0-0.8,0.1-1.2,0.1c-1,0.1-1.9,0.2-2.8,0.3c-0.4,0-0.7,0.1-1.1,0.1
	c-1,0.1-1.9,0.2-2.6,0.3c-0.2,0-0.4,0.1-0.6,0.1c-0.3,0-0.5,0.1-0.7,0.1c-0.1,0-0.1,0-0.2,0c0.6-0.1,1.1-0.3,1.7-0.4
	c0.1,0,0.1,0,0.1,0c1-0.2,2-0.4,3.1-0.6c1.1-0.2,2.1-0.4,3.2-0.6c0,0,0.1,0,0.1,0c2.9-0.5,5.9-0.9,9-1.3c1.2-0.1,2.4-0.3,3.5-0.4
	c0.1,0,0.1,0,0.2,0c1.2-0.1,2.4-0.2,3.7-0.3c0.2,0,0.5,0,0.7,0c0.7-0.1,1.5-0.1,2.2-0.1c0.1,0,0.3,0,0.4,0c1.1-0.1,2.2-0.1,3.3-0.1
	c5.1-0.2,10.4-0.1,15.5,0.3c1.7,0.1,3.3,0.3,5,0.5c3,0.4,6,0.9,9,1.5c1.6,0.3,3.2,0.7,4.8,1.2c1.3,0.4,2.5,0.7,3.8,1.2
	c0.5,0.1,1,0.3,1.5,0.5c1.6,0.6,3.2,1.2,4.8,1.9c1.5,0.6,2.9,1.3,4.3,2.1c0.8,0.4,1.6,0.9,2.4,1.4c22.2,13.8,43.1,16.3,43.1,16.3
	c66.6,12.5,110.3-10.1,112.4-11.2c-56.5,36.6-130.4,20.4-158.4,0.3C594.2,664.3,592.2,663.1,590,662z M610,693.6
	c54.8,35.9,116.3,8.4,116.3,8.4C657.4,746.8,610,693.6,610,693.6z M700.8,791.8c-16,8.4-38.4,35.5-38.4,35.5
	c16.6-32.8,55.2-57.8,55.2-57.8c37.5-23.4,62.8-56.7,63.6-57.8C752.8,758.5,716.8,783.4,700.8,791.8z M785.7,402.8
	c-40.9,2.6-54.1,14.6-54.1,14.6s6.3-17.1,52.9-21c46.6-3.8,61.7,20,61.7,20C820.6,399.2,785.7,402.8,785.7,402.8z"/>
<path fill="#716F38" d="M516.4,477.9c27.3-118.7,160.2-138.6,160.2-138.6C544.7,384.3,517.2,475.1,516.4,477.9z"/>
<path fill="#716F38" d="M522.7,422.7C565.3,304,667.2,280.4,667.2,280.4C565.9,325.4,524.1,419.5,522.7,422.7z"/>
<path fill="#716F38" d="M587.5,625.8c21.3-19.2,41.8-28.6,60.8-31.8c0,0,0-0.1,0-0.1c0,0,13.6-3.6,32.8-0.1c0,0,2.8,0.7,6.9,1.8
	c0,0,0,0,0,0c4.2,1.1,8.2,2.4,12.1,3.9c0.3,0.1,0.7,0.3,1,0.4c5.7,2.1,11.6,4.7,16,7.7c0,0,0,0,0,0v0c7.4,4.2,14,9,19.5,13.4
	c0,0,0,0,0,0c12.4,10,19.5,18.8,19.5,18.8s-9,2.8-37.1,2.7c-10.2,0.1-22.9,0-38.2-1.1c-8.4-0.6-24.4-2.7-24.4-2.7c0,0,0,0,0,0
	C612.4,633.8,587.5,625.8,587.5,625.8z"/>
<path fill="#716F38" d="M610,693.6c54.8,35.9,116.3,8.4,116.3,8.4C657.4,746.8,610,693.6,610,693.6z"/>
<path fill="#716F38" d="M690.3,433c0,0-124.6,7.1-165.7,110.3C525.4,539.9,553.3,424.3,690.3,433z"/>
<path fill="#716F38" d="M596.1,665.7c-27.2-19.6-76.8-12.4-79.6-11.9c24.9-5.8,60.3-7.3,82.6,6.5c22.2,13.8,43.1,16.3,43.1,16.3
	c66.6,12.5,110.3-10.1,112.4-11.2C698.1,702,624.1,685.9,596.1,665.7z"/>
<path fill="#716F38" d="M700.8,791.8c-16,8.4-38.4,35.5-38.4,35.5c16.6-32.8,55.2-57.8,55.2-57.8c37.5-23.4,62.8-56.7,63.6-57.8
	C752.8,758.5,716.8,783.4,700.8,791.8z"/>
<path fill="#716F38" d="M778.2,638.8c-28.7-69-88.6-73.6-88.6-73.6c54.2-5.5,79.1,43.7,79.8,45.1c-15.4-44.8-55.7-53.2-55.7-53.2
	c-76-14.4-80.2,0-120.8,27c-40.6,27-49.4,0.3-49.4,0.3c22.8,20.7,44.1-6.3,44.1-6.3c45.2-43.8,83.7-37.1,83.7-37.1
	C788,541.7,778.2,638.8,778.2,638.8z"/>
<path fill="#716F38" d="M837.6,331.7c-75.2-39.1-123.4,13.6-128.7,19.9C771.7,272.6,837.6,331.7,837.6,331.7z"/>
<path fill="#716F38" d="M846.2,416.3c-25.6-17.1-60.5-13.5-60.5-13.5c-40.9,2.6-54.1,14.6-54.1,14.6s6.3-17.1,52.9-21
	C831.1,392.5,846.2,416.3,846.2,416.3z"/>
<path fill="#716F38" d="M668.4,259.9c27.6-60.3,100.6-49,121.1-35.6c20.5,13.4,47,10.8,47,10.8c-24.7,8.9-51.2-3.4-51.2-3.4
	C708.9,201.9,670.3,257.2,668.4,259.9z"/>
<path fill="#716F38" stroke="#716F38" stroke-miterlimit="10" d="M1628.1,529.6c0,0-86.7,46.8-140.3,89.8
	c-53.6,43.1-98.3,69.4-179.2,90.9c0,0-36.3,12.1-86.2,19.4c0,0-18.9-3.7-26.8,13.1c0,0-4.7,6.8-6.8,16.3c-2.1,9.5-4.2,62.5-53.6,94
	c0,0-33.1,22.6-81.4,33.1c0,0-19.8,3.8-38,21.4c-18.2,17.5-77.1,100.2-160.4,96c-0.9,0-1.9-0.1-2.8-0.1V142.4
	c38.3,1.4,80.9,8.2,126.1,24.2c172.3,60.9,216.5,245.9,217.5,272.2c0,0,75.1-12.1,127.7-4.7c52.5,7.4,83.5,26.8,155.5,18.9
	c0,0,106.1-14.2,152.4,21.5C1678,510.2,1628.1,529.6,1628.1,529.6z"/>
<path fill="#41431A" d="M892.8,643.4c0,0-7.5-20.3-40.2-22.3v-5.5c11.9-0.5,25.6,2.6,37,15.4c0,0,9.8-42.3-37-50.3v-4.1
	c13.8,0.9,29.4,6.3,38.9,23.1C891.5,599.8,900.7,616.1,892.8,643.4z"/>
<path fill="#41431A" d="M895.2,707.6c0,0-11.9,5.3-21.4,0c0,0-8.9,2.4-21.2,2.6v-2.7c5.5-0.2,12.1-1.2,20.1-3.8
	c0,0,6.1-5.9,18.9-1.2c0,0,31.7-7.4,0-28.5c0,0,18.1,0.2,20.3,15C914.3,703.9,895.2,707.6,895.2,707.6z"/>
<path fill="#41431A" d="M852.9,446.1c0,0,20,57.3,0.3,103.8L852.9,446.1z"/>
<path fill="#41431A" d="M928.3,643.7c0,0-9.8-97,106.8-97.7c0,0,38.5-6.7,83.7,37.1c0,0,21.4,27,44.1,6.3c0,0-8.8,26.6-49.4-0.4
	s-44.8-41.3-120.8-27c0,0-40.3,8.4-55.7,53.2c0,0,24.9-50.8,79.9-45.2C1016.9,570.1,957,574.6,928.3,643.7z"/>
<path fill="#485525" d="M778.2,638.8c-28.7-69-88.6-73.6-88.6-73.6c54.2-5.5,79.1,43.7,79.8,45.1c-15.4-44.8-55.7-53.2-55.7-53.2
	c-76-14.4-80.2,0-120.8,27c-40.6,27-49.4,0.3-49.4,0.3c22.8,20.7,44.1-6.3,44.1-6.3c45.2-43.8,83.7-37.1,83.7-37.1
	C788,541.7,778.2,638.8,778.2,638.8z"/>
<path fill="#41431A" d="M973.5,697.8c0,0,61.5,27.5,116.3-8.4C1089.8,689.4,1042.3,742.6,973.5,697.8z"/>
<path fill="#41431A" d="M945.1,661.2c0,0,44.1,24,112.4,11.2c0,0,20.8-2.5,43.1-16.3c22.2-13.8,57.8-12.3,82.7-6.5
	c0,0-51.7-8.2-79.7,11.9S1001.6,697.9,945.1,661.2z"/>
<path fill="#41431A" d="M918.6,707.5c0,0,25.5,34.1,63.6,57.8c0,0,38.6,25,55.2,57.8c0,0-22.3-27.1-38.4-35.5
	C982.9,779.2,946.9,754.3,918.6,707.5z"/>
<path fill="#41431A" d="M993.1,832.6c0,0-103.8,2.4-126.3,2.3c-4.5,0-9.3-0.1-14.2-0.1v-7c5.8-0.1,11.8-0.3,17.5-0.9
	c7.7-0.7,20.7-0.6,35.4,0c0.3-6.2,1.4-26.8,0.7-35c0,0,5.5,25.1,4.3,35.2C947.7,828.6,993.1,832.6,993.1,832.6z"/>
<path fill="#41431A" d="M982.9,843.1c0,0-52.4,11.2-117.7,11c0,0-4.9,0-12.6-0.6v-5c10.3,1,21.5,1.6,32.6,1.4
	C920.9,849.3,958.2,846.3,982.9,843.1z"/>
<path fill="#41431A" d="M1020.8,435.9c0,0,124.7,7.1,165.7,110.4C1186.4,546.3,1159.8,427,1020.8,435.9z"/>
<path fill="#41431A" d="M862.4,415.6c0,0,15.1-23.8,61.6-20s52.9,21,52.9,21s-13.2-12-54.1-14.6C922.9,402.1,888,398.5,862.4,415.6z
	"/>
<g>
	<path fill="#FFFFFF" d="M946.3,643.1c0,0,77.8-96.2,168.7-14.2c0,0-34.2,11-93,15.2C963.1,648.4,946.3,643.1,946.3,643.1z"/>
	<path fill="#562E17" d="M1046,642c0,0-16,2.1-24.4,2.7c-19.2,1.4-34.4,1.1-45.5,1c-6-7.5-8.6-15.3-10.2-21.4
		c19.1-15.5,50.7-33.7,88.2-27.2C1062.7,621.8,1052,636.3,1046,642z"/>
	<path d="M1021.4,597c0,0-23.5,5.4-36,13.8c0,0-5.2,24.2,27.7,26.1c0,0,24.5,1,22.6-28.9L1021.4,597z"/>
	<path fill="#FFFFFF" d="M1021.4,597c0,0-0.8,16.8,18,14.8c0,0,13.4-2.2,14.8-14.7C1054.2,597.1,1040.6,593.4,1021.4,597z"/>
</g>
<path fill="#41431A" d="M1034.4,342.1c0,0,132.9,20,160.3,138.7C1194.7,480.8,1168.4,387.8,1034.4,342.1z"/>
<path fill="#41431A" d="M1043.9,283.2c0,0,101.9,23.6,144.5,142.4C1188.4,425.6,1146.9,328.9,1043.9,283.2z"/>
<path fill="#41431A" d="M871,331c0,0,66.2-59.4,129.3,20.5C1000.3,351.5,950.9,289.5,871,331z"/>
<path fill="#41431A" d="M872.1,234.4c0,0,26.5,2.6,47-10.8c20.5-13.4,93.5-24.7,121.1,35.7c0,0-38.6-58.8-116.9-28.4
	C923.3,230.9,896.8,243.3,872.1,234.4z"/>
<path fill="#41431A" d="M1420.8,514.1c0,0,72.2-28,144-20.7s56.7,15.8,56.7,15.8s-14.7,10.9-73.9,37.1c0,0-21,10.2-29.8,21.7
	c-8.8,11.6-98.8,80.9-173.7,94.2c-75,13.3-110-33.6-110-33.6s-32.9-39.9,51.5-69C1370,530.5,1420.8,514.1,1420.8,514.1z"/>
<path fill="#485525" d="M726.3,702c-68.8,44.8-116.3-8.4-116.3-8.4C664.8,729.5,726.3,702,726.3,702z"/>
<path fill="#485525" d="M754.6,665.4c-56.5,36.6-130.4,20.4-158.4,0.3c-27.2-19.6-76.8-12.4-79.6-11.9c24.9-5.8,60.3-7.3,82.6,6.5
	c22.2,13.8,43.1,16.3,43.1,16.3C708.8,689,752.5,666.5,754.6,665.4z"/>
<path fill="#485525" d="M781.1,711.7c-28.4,46.7-64.3,71.7-80.4,80.1c-16,8.4-38.4,35.5-38.4,35.5c16.6-32.8,55.2-57.8,55.2-57.8
	C755.1,746.1,780.4,712.8,781.1,711.7z"/>
<path fill="#485525" d="M690.3,433c0,0-124.6,7.1-165.7,110.3C525.4,539.9,553.3,424.3,690.3,433z"/>
<path fill="#485525" d="M676.6,339.3c-131.9,45-159.4,135.8-160.2,138.6C543.7,359.2,676.6,339.3,676.6,339.3z"/>
<path fill="#485525" d="M667.2,280.4c-101.2,44.9-143,139.1-144.5,142.3C565.3,304,667.2,280.4,667.2,280.4z"/>
<path fill="#485525" d="M846.2,416.3c-25.6-17.1-60.5-13.5-60.5-13.5c-40.9,2.6-54.1,14.6-54.1,14.6s6.3-17.1,52.9-21
	C831.1,392.5,846.2,416.3,846.2,416.3z"/>
<path fill="#485525" d="M837.6,331.7c-75.2-39.1-123.4,13.6-128.7,19.9C771.7,272.6,837.6,331.7,837.6,331.7z"/>
<path fill="#485525" d="M836.5,235c-24.7,8.9-51.2-3.4-51.2-3.4c-76.4-29.7-115,25.5-116.9,28.3c27.6-60.3,100.6-49,121.1-35.6
	C810,237.7,836.5,235,836.5,235z"/>
<path fill="#485525" d="M286.5,514.1c0,0-72.2-28-144-20.7s-56.7,15.8-56.7,15.8s14.7,10.9,73.9,37.1c0,0,21,10.2,29.8,21.7
	s98.8,80.9,173.7,94.2s110-33.6,110-33.6s32.9-39.9-51.5-69S286.5,514.1,286.5,514.1z"/>
<g>
	<path fill="#FFFFFF" d="M756.1,640c0,0-9,2.8-37.1,2.7c-10.2,0-22.9-0.5-38.6-1.6c-8.6-0.6-16.6-1.4-24.1-2.2
		c-44-5-68.9-13-68.9-13c21.3-19.2,41.8-28.6,60.8-31.8c0,0,0.1,0,0.1,0c11.3-1.9,22.1-1.6,32.1,0.3c0.2,0,0.4,0.1,0.5,0.1
		c13.5,2.5,25.6,7.6,36,13.5c7.4,4.2,14,8.9,19.5,13.3C749,631.2,756.1,640,756.1,640z"/>
	<path fill="#663C26" d="M736.6,621.1C736.6,621.2,736.6,621.2,736.6,621.1c-1.6,6.2-4.2,13.9-10.2,21.4c-2.3,0-4.7,0.1-7.4,0.1
		c-10.2,0.1-22.9,0-38.2-1.1c-8.4-0.6-24.4-2.7-24.4-2.7c0,0,0,0,0,0c-5.9-5.7-16.6-20-8.1-44.6c0-0.1,0.1-0.2,0.1-0.3v0
		c11.4-2,22.2-1.7,32.3,0.1c0.1,0,0.2,0,0.3,0c0,0,0,0,0,0c2.3,0.4,4.6,0.9,6.9,1.5c0,0,0,0,0,0c4.2,1.1,8.2,2.4,12.1,3.9
		c0.3,0.1,0.7,0.3,1,0.4c5.7,2.3,11.1,4.9,16.1,7.8v0C724.5,612,731.1,616.7,736.6,621.1z"/>
	<path d="M689.3,633.8c0,0-22.3,0.9-22.7-25c0-1.2,0-2.5,0.1-3.9l13.7-10.6l0.2-0.1l0.3-0.3c0,0,2.8,0.7,6.9,1.8c0,0,0,0,0,0
		c3.4,1,7.6,2.3,12.1,3.9c0.3,0.1,0.7,0.3,1,0.4c5.7,2.1,11.6,4.7,16,7.7c0,0,0,0,0,0v0c0,0,0,0.1,0,0.1
		C717.5,610.1,720.5,631.9,689.3,633.8z"/>
	<path fill="#FFFFFF" d="M681,593.8c0,0,0,0.1,0,0.3c0,0,0,0,0,0v0.2c0,2.5-0.9,14.1-14.4,14.5c-1.1,0-2.3,0-3.6-0.1
		c0,0-13.2-2.1-14.8-14.4c0-0.1,0-0.2,0-0.3c0,0,0-0.1,0-0.1C648.3,593.9,661.8,590.3,681,593.8z"/>
</g>
<line fill="none" x1="625.1" y1="832.2" x2="625.1" y2="758.5"/>
<path fill="#485525" d="M852.6,848.6v5c-13.3-1-34.8-3.8-52.9-11.3c0,0-21.5-8.2-49.7,1.9c1-0.7,24.9-15.6,62.1-1.6
	C812.2,842.6,830,846.4,852.6,848.6z"/>
<path fill="#485525" d="M852.6,827.7v7c-19.5-0.3-41.6-1.3-62.9-6.2c-26.6-6.1-43.4-3.5-59.5,4.2c0,0,17.2-17.4,69.2-9
	c-0.5-8.2-1.8-40.4,7.7-47.9c-0.9,1-6.7,9.5-3,48.7c1.9,0.3,3.8,0.7,5.8,1.1c0,0,1.9,0.2,5.2,0.5c0-6,0.3-23.3,3.7-33.9
	c0,0-2.7,26.4-1.3,34.1C825.5,827.1,838.7,827.9,852.6,827.7z"/>
<path fill="#485525" d="M852.6,707.5v2.7c-6,0.1-12.8-0.4-19.8-1.9c0,0-22.8,8.9-31.2-12.3c0,0,9.3,9.8,28.5,4.5
	C830.2,700.6,836.2,708,852.6,707.5z"/>
<path fill="#485525" d="M852.6,615.6v5.5c-7.9-0.5-17.1,0.1-28.1,2.3C824.5,623.4,837,616.3,852.6,615.6z"/>
<path fill="#485525" d="M852.6,576.7v4.1c-7.9-1.3-17.4-1.7-28.9-0.7C823.7,580.1,837.1,575.6,852.6,576.7z"/>
<line fill="none" x1="1035.4" y1="256.6" x2="1035.4" y2="227.6"/>
</svg>
